<svg xmlns="http://www.w3.org/2000/svg" xmlns:xlink="http://www.w3.org/1999/xlink" contentStyleType="text/css" data-diagram-type="CLASS" height="3537px" preserveAspectRatio="none" style="width:1549px;height:3537px;background:#FFFFFF;" version="1.1" viewBox="0 0 1549 3537" width="1549px" zoomAndPan="magnify"><title>distributed_relay_chat &#8212; UML &#1076;&#1080;&#1072;&#1075;&#1088;&#1072;&#1084;&#1084;&#1072; &#1082;&#1083;&#1072;&#1089;&#1089;&#1086;&#1074;</title><defs/><g><text fill="#000000" font-family="sans-serif" font-size="14" font-weight="bold" lengthAdjust="spacing" textLength="355.2066" x="587.1773" y="24.9659">distributed_relay_chat &#8212; UML &#1076;&#1080;&#1072;&#1075;&#1088;&#1072;&#1084;&#1084;&#1072; &#1082;&#1083;&#1072;&#1089;&#1089;&#1086;&#1074;</text><path d="M150.2904,2887.1932 L298.9757,2887.1932 A3.75,3.75 0 0 1 301.4757,2889.6932 L308.4757,2912.2611 L1290.6607,2912.2611 A2.5,2.5 0 0 1 1293.1607,2914.7611 L1293.1607,3402.5082 A2.5,2.5 0 0 1 1290.6607,3405.0082 L150.2904,3405.0082 A2.5,2.5 0 0 1 147.7904,3402.5082 L147.7904,2889.6932 A2.5,2.5 0 0 1 150.2904,2887.1932" fill="none" style="stroke:#000000;stroke-width:1.5;"/><line style="stroke:#000000;stroke-width:1.5;" x1="147.7904" x2="308.4757" y1="2912.2611" y2="2912.2611"/><text fill="#000000" font-family="sans-serif" font-size="14" font-weight="bold" lengthAdjust="spacing" textLength="147.6854" x="151.7904" y="2904.1591">&#1055;&#1072;&#1082;&#1077;&#1090;&#1099; &#1080; &#1086;&#1073;&#1088;&#1072;&#1073;&#1086;&#1090;&#1082;&#1072;</text><path d="M55.8572,2376.6043 L155.9348,2376.6043 A3.75,3.75 0 0 1 158.4348,2379.1043 L165.4348,2401.6722 L376.1278,2401.6722 A2.5,2.5 0 0 1 378.6278,2404.1722 L378.6278,2834.6932 A2.5,2.5 0 0 1 376.1278,2837.1932 L55.8572,2837.1932 A2.5,2.5 0 0 1 53.3572,2834.6932 L53.3572,2379.1043 A2.5,2.5 0 0 1 55.8572,2376.6043" fill="none" style="stroke:#000000;stroke-width:1.5;"/><line style="stroke:#000000;stroke-width:1.5;" x1="53.3572" x2="165.4348" y1="2401.6722" y2="2401.6722"/><text fill="#000000" font-family="sans-serif" font-size="14" font-weight="bold" lengthAdjust="spacing" textLength="99.0776" x="57.3572" y="2393.5702">&#1057;&#1077;&#1090;&#1100; &#1080; &#1089;&#1077;&#1088;&#1074;&#1077;&#1088;</text><path d="M156.1586,1337.7659 L293.1261,1337.7659 A3.75,3.75 0 0 1 295.6261,1340.2659 L302.6261,1362.8338 L1063.1089,1362.8338 A2.5,2.5 0 0 1 1065.6089,1365.3338 L1065.6089,2314.1042 A2.5,2.5 0 0 1 1063.1089,2316.6042 L156.1586,2316.6042 A2.5,2.5 0 0 1 153.6586,2314.1042 L153.6586,1340.2659 A2.5,2.5 0 0 1 156.1586,1337.7659" fill="none" style="stroke:#000000;stroke-width:1.5;"/><line style="stroke:#000000;stroke-width:1.5;" x1="153.6586" x2="302.6261" y1="1362.8338" y2="1362.8338"/><text fill="#000000" font-family="sans-serif" font-size="14" font-weight="bold" lengthAdjust="spacing" textLength="135.9675" x="157.6586" y="1354.7318">&#1056;&#1077;&#1083;&#1077;&#1081; &#1080; &#1076;&#1080;&#1089;&#1087;&#1077;&#1090;&#1095;&#1077;&#1088;</text><path d="M14.5,52.0679 L210.4352,52.0679 A3.75,3.75 0 0 1 212.9352,54.5679 L219.9352,77.1358 L850.4013,77.1358 A2.5,2.5 0 0 1 852.9013,79.6358 L852.9013,1255.2659 A2.5,2.5 0 0 1 850.4013,1257.7659 L14.5,1257.7659 A2.5,2.5 0 0 1 12,1255.2659 L12,54.5679 A2.5,2.5 0 0 1 14.5,52.0679" fill="none" style="stroke:#000000;stroke-width:1.5;"/><line style="stroke:#000000;stroke-width:1.5;" x1="12" x2="219.9352" y1="77.1358" y2="77.1358"/><text fill="#000000" font-family="sans-serif" font-size="14" font-weight="bold" lengthAdjust="spacing" textLength="194.9352" x="16" y="69.0339">&#1050;&#1083;&#1080;&#1077;&#1085;&#1090;, &#1095;&#1072;&#1090;&#1099;, &#1082;&#1086;&#1084;&#1072;&#1085;&#1076;&#1099;, UI</text><!--class Package--><g class="entity" data-entity="Package" data-source-line="7" data-uid="ent0003" id="entity_Package"><rect fill="#F1F1F1" height="105.2038" rx="2.5" ry="2.5" style="stroke:#181818;stroke-width:0.5;" width="145.4195" x="543.4841" y="2927.1932"/><ellipse cx="586.0302" cy="2943.1932" fill="#A9DCDF" rx="11" ry="11" style="stroke:#181818;stroke-width:1;"/><path d="M581.2021,2948.9432 L584.5459,2936.7557 L587.6865,2936.7557 L591.0615,2948.9432 L588.5927,2948.9432 L587.8584,2945.9275 L584.3427,2945.9275 L583.5927,2948.9432 L581.2021,2948.9432 Z M585.6084,2940.8963 L584.8584,2943.8963 L587.374,2943.8963 L586.6552,2940.8963 Q586.5146,2940.3182 586.3896,2939.7713 Q586.2646,2939.2088 586.124,2938.6307 Q586.0146,2939.2088 585.874,2939.7713 Q585.7334,2940.3182 585.6084,2940.8963 Z " fill="#000000"/><text fill="#000000" font-family="sans-serif" font-size="14" font-style="italic" lengthAdjust="spacing" textLength="52.2058" x="606.1516" y="2948.6251">Package</text><line style="stroke:#181818;stroke-width:0.5;" x1="544.4841" x2="687.9036" y1="2959.1932" y2="2959.1932"/><text fill="#000000" font-family="sans-serif" font-size="14" lengthAdjust="spacing" textLength="61.6418" x="549.4841" y="2978.1591">+type: str</text><line style="stroke:#181818;stroke-width:0.5;" x1="544.4841" x2="687.9036" y1="2986.2611" y2="2986.2611"/><text fill="#000000" font-family="sans-serif" font-size="14" lengthAdjust="spacing" textLength="88.5217" x="549.4841" y="3005.227">+to_json(): str</text><text fill="#000000" font-family="sans-serif" font-size="14" lengthAdjust="spacing" textLength="133.4195" x="549.4841" y="3024.2949">+from_json(json_str)</text></g><!--class Message--><g class="entity" data-entity="Message" data-source-line="12" data-uid="ent0004" id="entity_Message"><rect fill="#F1F1F1" height="162.4075" rx="2.5" ry="2.5" style="stroke:#181818;stroke-width:0.5;" width="225.3452" x="705.1626" y="3072.3969"/><ellipse cx="784.4023" cy="3088.3969" fill="#ADD1B2" rx="11" ry="11" style="stroke:#181818;stroke-width:1;"/><path d="M783.8711,3095.3188 Q782.1211,3095.3188 780.9804,3094.5844 Q779.8554,3093.8344 779.2929,3092.4907 Q778.7461,3091.1313 778.7461,3089.3344 Q778.7461,3087.3032 779.4023,3085.85 Q780.0586,3084.3969 781.3398,3083.6157 Q782.6211,3082.8344 784.4961,3082.8344 Q785.3867,3082.8344 786.0586,3083.0219 Q786.7304,3083.1938 787.4179,3083.5375 L786.6054,3085.5532 Q785.9804,3085.2407 785.4336,3085.1157 Q784.9023,3084.9907 784.4179,3084.9907 Q783.2461,3084.9907 782.5429,3085.5219 Q781.8398,3086.0532 781.5429,3087.0063 Q781.2461,3087.9594 781.2461,3089.225 Q781.2461,3091.2407 781.9648,3092.2094 Q782.6836,3093.1625 784.2773,3093.1625 Q784.8711,3093.1625 785.4961,3093.0063 Q786.1211,3092.85 786.9492,3092.475 L786.9492,3094.6938 Q786.2148,3095.0063 785.4179,3095.1625 Q784.6367,3095.3188 783.8711,3095.3188 Z " fill="#000000"/><text fill="#000000" font-family="sans-serif" font-size="14" lengthAdjust="spacing" textLength="58.3658" x="804.9023" y="3093.8289">Message</text><line style="stroke:#181818;stroke-width:0.5;" x1="706.1626" x2="929.5078" y1="3104.3969" y2="3104.3969"/><text fill="#000000" font-family="sans-serif" font-size="14" lengthAdjust="spacing" textLength="61.2218" x="711.1626" y="3123.3628">+chat: str</text><text fill="#000000" font-family="sans-serif" font-size="14" lengthAdjust="spacing" textLength="78.4837" x="711.1626" y="3142.4308">+sender: str</text><text fill="#000000" font-family="sans-serif" font-size="14" lengthAdjust="spacing" textLength="58.3518" x="711.1626" y="3161.4987">+text: str</text><text fill="#000000" font-family="sans-serif" font-size="14" lengthAdjust="spacing" textLength="115.9895" x="711.1626" y="3180.5666">+message_id: int?</text><text fill="#000000" font-family="sans-serif" font-size="14" lengthAdjust="spacing" textLength="151.5074" x="711.1626" y="3199.6345">+timestamp: datetime?</text><line style="stroke:#181818;stroke-width:0.5;" x1="706.1626" x2="929.5078" y1="3207.7365" y2="3207.7365"/><text fill="#000000" font-family="sans-serif" font-size="14" lengthAdjust="spacing" textLength="213.3452" x="711.1626" y="3226.7024">+set_timestamp_now(): Message</text></g><!--class TimestampResponse--><g class="entity" data-entity="TimestampResponse" data-source-line="20" data-uid="ent0005" id="entity_TimestampResponse"><rect fill="#F1F1F1" height="124.2717" rx="2.5" ry="2.5" style="stroke:#181818;stroke-width:0.5;" width="364.4347" x="162.7904" y="3072.3969"/><ellipse cx="272.0879" cy="3088.3969" fill="#ADD1B2" rx="11" ry="11" style="stroke:#181818;stroke-width:1;"/><path d="M271.5567,3095.3188 Q269.8067,3095.3188 268.6661,3094.5844 Q267.5411,3093.8344 266.9786,3092.4907 Q266.4317,3091.1313 266.4317,3089.3344 Q266.4317,3087.3032 267.0879,3085.85 Q267.7442,3084.3969 269.0254,3083.6157 Q270.3067,3082.8344 272.1817,3082.8344 Q273.0723,3082.8344 273.7442,3083.0219 Q274.4161,3083.1938 275.1036,3083.5375 L274.2911,3085.5532 Q273.6661,3085.2407 273.1192,3085.1157 Q272.5879,3084.9907 272.1036,3084.9907 Q270.9317,3084.9907 270.2286,3085.5219 Q269.5254,3086.0532 269.2286,3087.0063 Q268.9317,3087.9594 268.9317,3089.225 Q268.9317,3091.2407 269.6504,3092.2094 Q270.3692,3093.1625 271.9629,3093.1625 Q272.5567,3093.1625 273.1817,3093.0063 Q273.8067,3092.85 274.6348,3092.475 L274.6348,3094.6938 Q273.9004,3095.0063 273.1036,3095.1625 Q272.3223,3095.3188 271.5567,3095.3188 Z " fill="#000000"/><text fill="#000000" font-family="sans-serif" font-size="14" lengthAdjust="spacing" textLength="137.3395" x="292.5879" y="3093.8289">TimestampResponse</text><line style="stroke:#181818;stroke-width:0.5;" x1="163.7904" x2="526.225" y1="3104.3969" y2="3104.3969"/><text fill="#000000" font-family="sans-serif" font-size="14" lengthAdjust="spacing" textLength="61.2218" x="168.7904" y="3123.3628">+chat: str</text><text fill="#000000" font-family="sans-serif" font-size="14" lengthAdjust="spacing" textLength="109.9136" x="168.7904" y="3142.4308">+message_id: int</text><text fill="#000000" font-family="sans-serif" font-size="14" lengthAdjust="spacing" textLength="145.4315" x="168.7904" y="3161.4987">+timestamp: datetime</text><line style="stroke:#181818;stroke-width:0.5;" x1="163.7904" x2="526.225" y1="3169.6007" y2="3169.6007"/><text fill="#000000" font-family="sans-serif" font-size="14" lengthAdjust="spacing" textLength="352.4347" x="168.7904" y="3188.5666">+from_message(msg: Message): TimestampResponse</text></g><!--class SystemMessage--><g class="entity" data-entity="SystemMessage" data-source-line="26" data-uid="ent0006" id="entity_SystemMessage"><rect fill="#F1F1F1" height="86.1358" rx="2.5" ry="2.5" style="stroke:#181818;stroke-width:0.5;" width="137.9376" x="547.225" y="3072.3969"/><ellipse cx="562.225" cy="3088.3969" fill="#ADD1B2" rx="11" ry="11" style="stroke:#181818;stroke-width:1;"/><path d="M561.6938,3095.3188 Q559.9438,3095.3188 558.8031,3094.5844 Q557.6781,3093.8344 557.1156,3092.4907 Q556.5688,3091.1313 556.5688,3089.3344 Q556.5688,3087.3032 557.225,3085.85 Q557.8813,3084.3969 559.1625,3083.6157 Q560.4438,3082.8344 562.3188,3082.8344 Q563.2094,3082.8344 563.8813,3083.0219 Q564.5531,3083.1938 565.2406,3083.5375 L564.4281,3085.5532 Q563.8031,3085.2407 563.2563,3085.1157 Q562.725,3084.9907 562.2406,3084.9907 Q561.0688,3084.9907 560.3656,3085.5219 Q559.6625,3086.0532 559.3656,3087.0063 Q559.0688,3087.9594 559.0688,3089.225 Q559.0688,3091.2407 559.7875,3092.2094 Q560.5063,3093.1625 562.1,3093.1625 Q562.6938,3093.1625 563.3188,3093.0063 Q563.9438,3092.85 564.7719,3092.475 L564.7719,3094.6938 Q564.0375,3095.0063 563.2406,3095.1625 Q562.4594,3095.3188 561.6938,3095.3188 Z " fill="#000000"/><text fill="#000000" font-family="sans-serif" font-size="14" lengthAdjust="spacing" textLength="105.9376" x="576.225" y="3093.8289">SystemMessage</text><line style="stroke:#181818;stroke-width:0.5;" x1="548.225" x2="684.1626" y1="3104.3969" y2="3104.3969"/><text fill="#000000" font-family="sans-serif" font-size="14" lengthAdjust="spacing" textLength="96.2636" x="553.225" y="3123.3628">+msg_type: str</text><text fill="#000000" font-family="sans-serif" font-size="14" lengthAdjust="spacing" textLength="65.7718" x="553.225" y="3142.4308">+body: str</text><line style="stroke:#181818;stroke-width:0.5;" x1="548.225" x2="684.1626" y1="3150.5327" y2="3150.5327"/></g><!--class PackageHandler--><g class="entity" data-entity="PackageHandler" data-source-line="30" data-uid="ent0007" id="entity_PackageHandler"><rect fill="#F1F1F1" height="105.2038" rx="2.5" ry="2.5" style="stroke:#181818;stroke-width:0.5;" width="232.8352" x="1045.3255" y="2927.1932"/><ellipse cx="1106.4633" cy="2943.1932" fill="#A9DCDF" rx="11" ry="11" style="stroke:#181818;stroke-width:1;"/><path d="M1101.6352,2948.9432 L1104.9789,2936.7557 L1108.1195,2936.7557 L1111.4945,2948.9432 L1109.0258,2948.9432 L1108.2914,2945.9275 L1104.7758,2945.9275 L1104.0258,2948.9432 L1101.6352,2948.9432 Z M1106.0414,2940.8963 L1105.2914,2943.8963 L1107.807,2943.8963 L1107.0883,2940.8963 Q1106.9477,2940.3182 1106.8227,2939.7713 Q1106.6977,2939.2088 1106.557,2938.6307 Q1106.4477,2939.2088 1106.307,2939.7713 Q1106.1664,2940.3182 1106.0414,2940.8963 Z " fill="#000000"/><text fill="#000000" font-family="sans-serif" font-size="14" font-style="italic" lengthAdjust="spacing" textLength="102.0596" x="1126.9633" y="2948.6251">PackageHandler</text><line style="stroke:#181818;stroke-width:0.5;" x1="1046.3255" x2="1277.1607" y1="2959.1932" y2="2959.1932"/><line style="stroke:#181818;stroke-width:0.5;" x1="1046.3255" x2="1277.1607" y1="2967.1932" y2="2967.1932"/><text fill="#000000" font-family="sans-serif" font-size="14" lengthAdjust="spacing" textLength="167.2994" x="1051.3255" y="2986.1591">+on_msg(msg): awaitable</text><text fill="#000000" font-family="sans-serif" font-size="14" lengthAdjust="spacing" textLength="145.5715" x="1051.3255" y="3005.227">+on_tsr(tsr): awaitable</text><text fill="#000000" font-family="sans-serif" font-size="14" lengthAdjust="spacing" textLength="220.8352" x="1051.3255" y="3024.2949">+on_sys_msg(sys_msg): awaitable</text></g><!--class PackageFactory--><g class="entity" data-entity="PackageFactory" data-source-line="35" data-uid="ent0008" id="entity_PackageFactory"><rect fill="#F1F1F1" height="105.2038" rx="2.5" ry="2.5" style="stroke:#181818;stroke-width:0.5;" width="251.1331" x="1012.1992" y="3284.8044"/><ellipse cx="1081.9329" cy="3300.8044" fill="#ADD1B2" rx="11" ry="11" style="stroke:#181818;stroke-width:1;"/><path d="M1081.4016,3307.7263 Q1079.6516,3307.7263 1078.511,3306.9919 Q1077.386,3306.2419 1076.8235,3304.8982 Q1076.2766,3303.5388 1076.2766,3301.7419 Q1076.2766,3299.7107 1076.9329,3298.2576 Q1077.5891,3296.8044 1078.8704,3296.0232 Q1080.1516,3295.2419 1082.0266,3295.2419 Q1082.9173,3295.2419 1083.5891,3295.4294 Q1084.261,3295.6013 1084.9485,3295.9451 L1084.136,3297.9607 Q1083.511,3297.6482 1082.9641,3297.5232 Q1082.4329,3297.3982 1081.9485,3297.3982 Q1080.7766,3297.3982 1080.0735,3297.9294 Q1079.3704,3298.4607 1079.0735,3299.4138 Q1078.7766,3300.3669 1078.7766,3301.6326 Q1078.7766,3303.6482 1079.4954,3304.6169 Q1080.2141,3305.5701 1081.8079,3305.5701 Q1082.4016,3305.5701 1083.0266,3305.4138 Q1083.6516,3305.2576 1084.4798,3304.8826 L1084.4798,3307.1013 Q1083.7454,3307.4138 1082.9485,3307.5701 Q1082.1673,3307.7263 1081.4016,3307.7263 Z " fill="#000000"/><text fill="#000000" font-family="sans-serif" font-size="14" lengthAdjust="spacing" textLength="103.1656" x="1102.4329" y="3306.2364">PackageFactory</text><line style="stroke:#181818;stroke-width:0.5;" x1="1013.1992" x2="1262.3322" y1="3316.8044" y2="3316.8044"/><text fill="#000000" font-family="sans-serif" font-size="14" lengthAdjust="spacing" textLength="99.8756" x="1018.1992" y="3335.7704">-_handlers: dict</text><line style="stroke:#181818;stroke-width:0.5;" x1="1013.1992" x2="1262.3322" y1="3343.8723" y2="3343.8723"/><text fill="#000000" font-family="sans-serif" font-size="14" lengthAdjust="spacing" textLength="239.1331" x="1018.1992" y="3362.8383">+get_handler_and_instance(json_str)</text><text fill="#000000" font-family="sans-serif" font-size="14" lengthAdjust="spacing" textLength="222.8932" x="1018.1992" y="3381.9062">+process_json(json_str): awaitable</text></g><!--class ActivePackageHandler--><g class="entity" data-entity="ActivePackageHandler" data-source-line="40" data-uid="ent0009" id="entity_ActivePackageHandler"><rect fill="#F1F1F1" height="105.2038" rx="2.5" ry="2.5" style="stroke:#181818;stroke-width:0.5;" width="229.0412" x="951.5078" y="3086.6978"/><ellipse cx="989.0266" cy="3102.6978" fill="#ADD1B2" rx="11" ry="11" style="stroke:#181818;stroke-width:1;"/><path d="M988.4953,3109.6197 Q986.7453,3109.6197 985.6047,3108.8853 Q984.4797,3108.1353 983.9172,3106.7916 Q983.3703,3105.4322 983.3703,3103.6353 Q983.3703,3101.6041 984.0266,3100.151 Q984.6828,3098.6978 985.9641,3097.9166 Q987.2453,3097.1353 989.1203,3097.1353 Q990.011,3097.1353 990.6828,3097.3228 Q991.3547,3097.4947 992.0422,3097.8385 L991.2297,3099.8541 Q990.6047,3099.5416 990.0578,3099.4166 Q989.5266,3099.2916 989.0422,3099.2916 Q987.8703,3099.2916 987.1672,3099.8228 Q986.4641,3100.3541 986.1672,3101.3072 Q985.8703,3102.2603 985.8703,3103.526 Q985.8703,3105.5416 986.5891,3106.5103 Q987.3078,3107.4635 988.9016,3107.4635 Q989.4953,3107.4635 990.1203,3107.3072 Q990.7453,3107.151 991.5735,3106.776 L991.5735,3108.9947 Q990.8391,3109.3072 990.0422,3109.4635 Q989.261,3109.6197 988.4953,3109.6197 Z " fill="#000000"/><text fill="#000000" font-family="sans-serif" font-size="14" lengthAdjust="spacing" textLength="146.9994" x="1008.0308" y="3108.1298">ActivePackageHandler</text><line style="stroke:#181818;stroke-width:0.5;" x1="952.5078" x2="1179.549" y1="3118.6978" y2="3118.6978"/><text fill="#000000" font-family="sans-serif" font-size="14" lengthAdjust="spacing" textLength="99.4696" x="957.5078" y="3137.6638">+username: str</text><line style="stroke:#181818;stroke-width:0.5;" x1="952.5078" x2="1179.549" y1="3145.7658" y2="3145.7658"/><text fill="#000000" font-family="sans-serif" font-size="14" lengthAdjust="spacing" textLength="191.7572" x="957.5078" y="3164.7317">+send_username(): awaitable</text><text fill="#000000" font-family="sans-serif" font-size="14" lengthAdjust="spacing" textLength="217.0412" x="957.5078" y="3183.7996">+set_username(name): awaitable</text></g><!--class ConnectionHandler--><g class="entity" data-entity="ConnectionHandler" data-source-line="55" data-uid="ent0017" id="entity_ConnectionHandler"><rect fill="#F1F1F1" height="219.6113" rx="2.5" ry="2.5" style="stroke:#181818;stroke-width:0.5;" width="277.929" x="68.3572" y="2602.582"/><ellipse cx="139.169" cy="2618.582" fill="#ADD1B2" rx="11" ry="11" style="stroke:#181818;stroke-width:1;"/><path d="M138.6377,2625.5039 Q136.8877,2625.5039 135.7471,2624.7695 Q134.6221,2624.0195 134.0596,2622.6757 Q133.5127,2621.3164 133.5127,2619.5195 Q133.5127,2617.4882 134.169,2616.0351 Q134.8252,2614.582 136.1065,2613.8007 Q137.3877,2613.0195 139.2627,2613.0195 Q140.1533,2613.0195 140.8252,2613.207 Q141.4971,2613.3789 142.1846,2613.7226 L141.3721,2615.7382 Q140.7471,2615.4257 140.2002,2615.3007 Q139.669,2615.1757 139.1846,2615.1757 Q138.0127,2615.1757 137.3096,2615.707 Q136.6065,2616.2382 136.3096,2617.1914 Q136.0127,2618.1445 136.0127,2619.4101 Q136.0127,2621.4257 136.7315,2622.3945 Q137.4502,2623.3476 139.044,2623.3476 Q139.6377,2623.3476 140.2627,2623.1914 Q140.8877,2623.0351 141.7158,2622.6601 L141.7158,2624.8789 Q140.9815,2625.1914 140.1846,2625.3476 Q139.4033,2625.5039 138.6377,2625.5039 Z " fill="#000000"/><text fill="#000000" font-family="sans-serif" font-size="14" lengthAdjust="spacing" textLength="127.8055" x="159.669" y="2624.014">ConnectionHandler</text><line style="stroke:#181818;stroke-width:0.5;" x1="69.3572" x2="345.2862" y1="2634.582" y2="2634.582"/><text fill="#000000" font-family="sans-serif" font-size="14" lengthAdjust="spacing" textLength="25.7179" x="74.3572" y="2653.5479">+ws</text><text fill="#000000" font-family="sans-serif" font-size="14" lengthAdjust="spacing" textLength="225.6371" x="74.3572" y="2672.6158">+package_factory: PackageFactory</text><line style="stroke:#181818;stroke-width:0.5;" x1="69.3572" x2="345.2862" y1="2680.7178" y2="2680.7178"/><text fill="#000000" font-family="sans-serif" font-size="14" lengthAdjust="spacing" textLength="141.0355" x="74.3572" y="2699.6838">+connect(ip, port): str</text><text fill="#000000" font-family="sans-serif" font-size="14" lengthAdjust="spacing" textLength="64.4277" x="74.3572" y="2718.7517">+run(): str</text><text fill="#000000" font-family="sans-serif" font-size="14" lengthAdjust="spacing" textLength="212.3932" x="74.3572" y="2737.8196">+send_message(msg): awaitable</text><text fill="#000000" font-family="sans-serif" font-size="14" lengthAdjust="spacing" textLength="160.3134" x="74.3572" y="2756.8875">+send_tsr(tsr): awaitable</text><text fill="#000000" font-family="sans-serif" font-size="14" lengthAdjust="spacing" textLength="265.929" x="74.3572" y="2775.9554">+send_sys_message(sys_msg): awaitable</text><text fill="#000000" font-family="sans-serif" font-size="14" lengthAdjust="spacing" textLength="158.2414" x="74.3572" y="2795.0233">+disconnect(): awaitable</text><text fill="#000000" font-family="sans-serif" font-size="14" lengthAdjust="spacing" textLength="138.1655" x="74.3572" y="2814.0913">+is_connected(): bool</text></g><!--class Server--><g class="entity" data-entity="Server" data-source-line="66" data-uid="ent0018" id="entity_Server"><rect fill="#F1F1F1" height="124.2717" rx="2.5" ry="2.5" style="stroke:#181818;stroke-width:0.5;" width="219.9692" x="143.6586" y="2416.6043"/><ellipse cx="228.3163" cy="2432.6043" fill="#ADD1B2" rx="11" ry="11" style="stroke:#181818;stroke-width:1;"/><path d="M227.785,2439.5262 Q226.035,2439.5262 224.8944,2438.7918 Q223.7694,2438.0418 223.2069,2436.698 Q222.66,2435.3387 222.66,2433.5418 Q222.66,2431.5105 223.3163,2430.0574 Q223.9725,2428.6043 225.2538,2427.823 Q226.535,2427.0418 228.41,2427.0418 Q229.3007,2427.0418 229.9725,2427.2293 Q230.6444,2427.4012 231.3319,2427.7449 L230.5194,2429.7605 Q229.8944,2429.448 229.3475,2429.323 Q228.8163,2429.198 228.3319,2429.198 Q227.16,2429.198 226.4569,2429.7293 Q225.7538,2430.2605 225.4569,2431.2137 Q225.16,2432.1668 225.16,2433.4324 Q225.16,2435.448 225.8788,2436.4168 Q226.5975,2437.3699 228.1913,2437.3699 Q228.785,2437.3699 229.41,2437.2137 Q230.035,2437.0574 230.8632,2436.6824 L230.8632,2438.9012 Q230.1288,2439.2137 229.3319,2439.3699 Q228.5507,2439.5262 227.785,2439.5262 Z " fill="#000000"/><text fill="#000000" font-family="sans-serif" font-size="14" lengthAdjust="spacing" textLength="42.1538" x="248.8163" y="2438.0363">Server</text><line style="stroke:#181818;stroke-width:0.5;" x1="144.6586" x2="362.6278" y1="2448.6043" y2="2448.6043"/><text fill="#000000" font-family="sans-serif" font-size="14" lengthAdjust="spacing" textLength="159.1234" x="149.6586" y="2467.5702">+active_connections: set</text><text fill="#000000" font-family="sans-serif" font-size="14" lengthAdjust="spacing" textLength="162.9173" x="149.6586" y="2486.6381">+on_connection_callback</text><line style="stroke:#181818;stroke-width:0.5;" x1="144.6586" x2="362.6278" y1="2494.7401" y2="2494.7401"/><text fill="#000000" font-family="sans-serif" font-size="14" lengthAdjust="spacing" textLength="207.9692" x="149.6586" y="2513.7061">+handler_factory(ws): awaitable</text><text fill="#000000" font-family="sans-serif" font-size="14" lengthAdjust="spacing" textLength="110.2356" x="149.6586" y="2532.774">+run(): awaitable</text></g><!--class Relay--><g class="entity" data-entity="Relay" data-source-line="77" data-uid="ent0022" id="entity_Relay"><rect fill="#F1F1F1" height="162.4075" rx="2.5" ry="2.5" style="stroke:#181818;stroke-width:0.5;" width="317.0448" x="733.5641" y="1377.7659"/><ellipse cx="870.2316" cy="1393.7659" fill="#ADD1B2" rx="11" ry="11" style="stroke:#181818;stroke-width:1;"/><path d="M869.7003,1400.6878 Q867.9503,1400.6878 866.8097,1399.9534 Q865.6847,1399.2034 865.1222,1397.8597 Q864.5753,1396.5003 864.5753,1394.7034 Q864.5753,1392.6722 865.2316,1391.219 Q865.8878,1389.7659 867.1691,1388.9847 Q868.4503,1388.2034 870.3253,1388.2034 Q871.2159,1388.2034 871.8878,1388.3909 Q872.5597,1388.5628 873.2472,1388.9065 L872.4347,1390.9222 Q871.8097,1390.6097 871.2628,1390.4847 Q870.7316,1390.3597 870.2472,1390.3597 Q869.0753,1390.3597 868.3722,1390.8909 Q867.6691,1391.4222 867.3722,1392.3753 Q867.0753,1393.3284 867.0753,1394.594 Q867.0753,1396.6097 867.7941,1397.5784 Q868.5128,1398.5315 870.1066,1398.5315 Q870.7003,1398.5315 871.3253,1398.3753 Q871.9503,1398.219 872.7784,1397.844 L872.7784,1400.0628 Q872.0441,1400.3753 871.2472,1400.5315 Q870.4659,1400.6878 869.7003,1400.6878 Z " fill="#000000"/><text fill="#000000" font-family="sans-serif" font-size="14" lengthAdjust="spacing" textLength="35.2099" x="890.7316" y="1399.1979">Relay</text><line style="stroke:#181818;stroke-width:0.5;" x1="734.5641" x2="1049.6089" y1="1409.7659" y2="1409.7659"/><text fill="#000000" font-family="sans-serif" font-size="14" lengthAdjust="spacing" textLength="95.2276" x="739.5641" y="1428.7318">-server: Server</text><text fill="#000000" font-family="sans-serif" font-size="14" lengthAdjust="spacing" textLength="152.5014" x="739.5641" y="1447.7998">-dispatcher: Dispatcher</text><text fill="#000000" font-family="sans-serif" font-size="14" lengthAdjust="spacing" textLength="233.3931" x="739.5641" y="1466.8677">-proxy_dispatcher: ProxyDispatcher</text><text fill="#000000" font-family="sans-serif" font-size="14" lengthAdjust="spacing" textLength="91.8676" x="739.5641" y="1485.9356">-bot: RelayBot</text><line style="stroke:#181818;stroke-width:0.5;" x1="734.5641" x2="1049.6089" y1="1494.0376" y2="1494.0376"/><text fill="#000000" font-family="sans-serif" font-size="14" lengthAdjust="spacing" textLength="110.2356" x="739.5641" y="1513.0035">+run(): awaitable</text><text fill="#000000" font-family="sans-serif" font-size="14" lengthAdjust="spacing" textLength="305.0448" x="739.5641" y="1532.0714">+start_handler(connection_handler): awaitable</text></g><!--class DispatchCode--><g class="entity" data-entity="DispatchCode" data-source-line="85" data-uid="ent0023" id="entity_DispatchCode"><rect fill="#F1F1F1" height="48" rx="2.5" ry="2.5" style="stroke:#181818;stroke-width:0.5;" width="123.2516" x="182.2065" y="1621.8794"/><ellipse cx="197.2065" cy="1637.8794" fill="#EB937F" rx="11" ry="11" style="stroke:#181818;stroke-width:1;"/><path d="M193.5659,1644.3794 L193.5659,1632.2388 L201.2221,1632.2388 L201.2221,1634.3638 L195.9409,1634.3638 L195.9409,1637.0201 L200.9565,1637.0201 L200.9565,1639.1451 L195.9409,1639.1451 L195.9409,1642.2544 L201.2221,1642.2544 L201.2221,1644.3794 L193.5659,1644.3794 Z " fill="#000000"/><text fill="#000000" font-family="sans-serif" font-size="14" lengthAdjust="spacing" textLength="91.2516" x="211.2065" y="1643.3114">DispatchCode</text><line style="stroke:#181818;stroke-width:0.5;" x1="183.2065" x2="304.4582" y1="1653.8794" y2="1653.8794"/><line style="stroke:#181818;stroke-width:0.5;" x1="183.2065" x2="304.4582" y1="1661.8794" y2="1661.8794"/></g><!--class DispatchResult--><g class="entity" data-entity="DispatchResult" data-source-line="86" data-uid="ent0024" id="entity_DispatchResult"><rect fill="#F1F1F1" height="124.2717" rx="2.5" ry="2.5" style="stroke:#181818;stroke-width:0.5;" width="150.3475" x="168.6586" y="1415.9017"/><ellipse cx="192.7899" cy="1431.9017" fill="#ADD1B2" rx="11" ry="11" style="stroke:#181818;stroke-width:1;"/><path d="M192.2587,1438.8236 Q190.5087,1438.8236 189.3681,1438.0892 Q188.2431,1437.3392 187.6806,1435.9955 Q187.1337,1434.6361 187.1337,1432.8392 Q187.1337,1430.808 187.7899,1429.3549 Q188.4462,1427.9017 189.7274,1427.1205 Q191.0087,1426.3392 192.8837,1426.3392 Q193.7743,1426.3392 194.4462,1426.5267 Q195.1181,1426.6986 195.8056,1427.0424 L194.9931,1429.058 Q194.3681,1428.7455 193.8212,1428.6205 Q193.2899,1428.4955 192.8056,1428.4955 Q191.6337,1428.4955 190.9306,1429.0267 Q190.2274,1429.558 189.9306,1430.5111 Q189.6337,1431.4642 189.6337,1432.7299 Q189.6337,1434.7455 190.3524,1435.7142 Q191.0712,1436.6674 192.6649,1436.6674 Q193.2587,1436.6674 193.8837,1436.5111 Q194.5087,1436.3549 195.3368,1435.9799 L195.3368,1438.1986 Q194.6024,1438.5111 193.8056,1438.6674 Q193.0243,1438.8236 192.2587,1438.8236 Z " fill="#000000"/><text fill="#000000" font-family="sans-serif" font-size="14" lengthAdjust="spacing" textLength="98.0556" x="208.8191" y="1437.3337">DispatchResult</text><line style="stroke:#181818;stroke-width:0.5;" x1="169.6586" x2="318.0061" y1="1447.9017" y2="1447.9017"/><text fill="#000000" font-family="sans-serif" font-size="14" lengthAdjust="spacing" textLength="60.5078" x="174.6586" y="1466.8677">+ok: bool</text><text fill="#000000" font-family="sans-serif" font-size="14" lengthAdjust="spacing" textLength="138.3475" x="174.6586" y="1485.9356">+code: DispatchCode</text><text fill="#000000" font-family="sans-serif" font-size="14" lengthAdjust="spacing" textLength="88.9137" x="174.6586" y="1505.0035">+params: str?</text><line style="stroke:#181818;stroke-width:0.5;" x1="169.6586" x2="318.0061" y1="1513.1055" y2="1513.1055"/><text fill="#000000" font-family="sans-serif" font-size="14" lengthAdjust="spacing" textLength="126.3355" x="174.6586" y="1532.0714">+format_error(): str</text></g><!--class DispatcherInterface--><g class="entity" data-entity="DispatcherInterface" data-source-line="92" data-uid="ent0025" id="entity_DispatcherInterface"><rect fill="#F1F1F1" height="48" rx="2.5" ry="2.5" style="stroke:#181818;stroke-width:0.5;" width="154.2895" x="597.831" y="1910.7599"/><ellipse cx="612.831" cy="1926.7599" fill="#B4A7E5" rx="11" ry="11" style="stroke:#181818;stroke-width:1;"/><path d="M608.8622,1933.2599 L608.8622,1931.5568 L611.2216,1931.2912 L611.2216,1923.0881 L608.8622,1922.8224 L608.8622,1921.1193 L616.0028,1921.1193 L616.0028,1922.8224 L613.581,1923.0881 L613.581,1931.2912 L616.0028,1931.5568 L616.0028,1933.2599 L608.8622,1933.2599 Z " fill="#000000"/><text fill="#000000" font-family="sans-serif" font-size="14" font-style="italic" lengthAdjust="spacing" textLength="122.2895" x="626.831" y="1932.1919">DispatcherInterface</text><line style="stroke:#181818;stroke-width:0.5;" x1="598.831" x2="751.1205" y1="1942.7599" y2="1942.7599"/><line style="stroke:#181818;stroke-width:0.5;" x1="598.831" x2="751.1205" y1="1950.7599" y2="1950.7599"/></g><!--class Dispatcher--><g class="entity" data-entity="Dispatcher" data-source-line="93" data-uid="ent0026" id="entity_Dispatcher"><rect fill="#F1F1F1" height="105.2038" rx="2.5" ry="2.5" style="stroke:#181818;stroke-width:0.5;" width="152.0974" x="573.5774" y="2013.0609"/><ellipse cx="610.6237" cy="2029.0609" fill="#ADD1B2" rx="11" ry="11" style="stroke:#181818;stroke-width:1;"/><path d="M610.0925,2035.9828 Q608.3425,2035.9828 607.2018,2035.2484 Q606.0768,2034.4984 605.5143,2033.1546 Q604.9675,2031.7953 604.9675,2029.9984 Q604.9675,2027.9671 605.6237,2026.514 Q606.28,2025.0609 607.5612,2024.2796 Q608.8425,2023.4984 610.7175,2023.4984 Q611.6081,2023.4984 612.28,2023.6859 Q612.9518,2023.8578 613.6393,2024.2015 L612.8268,2026.2171 Q612.2018,2025.9046 611.655,2025.7796 Q611.1237,2025.6546 610.6393,2025.6546 Q609.4675,2025.6546 608.7643,2026.1859 Q608.0612,2026.7171 607.7643,2027.6703 Q607.4675,2028.6234 607.4675,2029.889 Q607.4675,2031.9046 608.1862,2032.8734 Q608.905,2033.8265 610.4987,2033.8265 Q611.0925,2033.8265 611.7175,2033.6703 Q612.3425,2033.514 613.1706,2033.139 L613.1706,2035.3578 Q612.4362,2035.6703 611.6393,2035.8265 Q610.8581,2035.9828 610.0925,2035.9828 Z " fill="#000000"/><text fill="#000000" font-family="sans-serif" font-size="14" lengthAdjust="spacing" textLength="71.1057" x="629.5229" y="2034.4929">Dispatcher</text><line style="stroke:#181818;stroke-width:0.5;" x1="574.5774" x2="724.6749" y1="2045.0609" y2="2045.0609"/><text fill="#000000" font-family="sans-serif" font-size="14" lengthAdjust="spacing" textLength="98.1396" x="579.5774" y="2064.0268">+channels: dict</text><text fill="#000000" font-family="sans-serif" font-size="14" lengthAdjust="spacing" textLength="110.1796" x="579.5774" y="2083.0947">+users_funs: dict</text><text fill="#000000" font-family="sans-serif" font-size="14" lengthAdjust="spacing" textLength="140.0974" x="579.5774" y="2102.1627">+users_channels: dict</text><line style="stroke:#181818;stroke-width:0.5;" x1="574.5774" x2="724.6749" y1="2110.2646" y2="2110.2646"/></g><!--class Channel--><g class="entity" data-entity="Channel" data-source-line="98" data-uid="ent0027" id="entity_Channel"><rect fill="#F1F1F1" height="143.3396" rx="2.5" ry="2.5" style="stroke:#181818;stroke-width:0.5;" width="315.2389" x="492.0067" y="2158.2646"/><ellipse cx="618.2933" cy="2174.2646" fill="#ADD1B2" rx="11" ry="11" style="stroke:#181818;stroke-width:1;"/><path d="M617.762,2181.1865 Q616.012,2181.1865 614.8714,2180.4521 Q613.7464,2179.7021 613.1839,2178.3584 Q612.637,2176.999 612.637,2175.2021 Q612.637,2173.1709 613.2933,2171.7178 Q613.9495,2170.2646 615.2308,2169.4834 Q616.512,2168.7021 618.387,2168.7021 Q619.2777,2168.7021 619.9495,2168.8896 Q620.6214,2169.0615 621.3089,2169.4053 L620.4964,2171.4209 Q619.8714,2171.1084 619.3245,2170.9834 Q618.7933,2170.8584 618.3089,2170.8584 Q617.137,2170.8584 616.4339,2171.3896 Q615.7308,2171.9209 615.4339,2172.874 Q615.137,2173.8271 615.137,2175.0928 Q615.137,2177.1084 615.8558,2178.0771 Q616.5745,2179.0303 618.1683,2179.0303 Q618.762,2179.0303 619.387,2178.874 Q620.012,2178.7178 620.8402,2178.3428 L620.8402,2180.5615 Q620.1058,2180.874 619.3089,2181.0303 Q618.5277,2181.1865 617.762,2181.1865 Z " fill="#000000"/><text fill="#000000" font-family="sans-serif" font-size="14" lengthAdjust="spacing" textLength="54.1658" x="638.7933" y="2179.6966">Channel</text><line style="stroke:#181818;stroke-width:0.5;" x1="493.0067" x2="806.2456" y1="2190.2646" y2="2190.2646"/><text fill="#000000" font-family="sans-serif" font-size="14" lengthAdjust="spacing" textLength="70.4337" x="498.0067" y="2209.2306">+name: str</text><text fill="#000000" font-family="sans-serif" font-size="14" lengthAdjust="spacing" textLength="98.1256" x="498.0067" y="2228.2985">+members: set</text><line style="stroke:#181818;stroke-width:0.5;" x1="493.0067" x2="806.2456" y1="2236.4005" y2="2236.4005"/><text fill="#000000" font-family="sans-serif" font-size="14" lengthAdjust="spacing" textLength="303.2389" x="498.0067" y="2255.3664">+send_message(sender_code, msg): awaitable</text><text fill="#000000" font-family="sans-serif" font-size="14" lengthAdjust="spacing" textLength="217.3912" x="498.0067" y="2274.4343">+subscribe(user_code): awaitable</text><text fill="#000000" font-family="sans-serif" font-size="14" lengthAdjust="spacing" textLength="234.6951" x="498.0067" y="2293.5022">+unsubscribe(user_code): awaitable</text></g><!--class UserRole--><g class="entity" data-entity="UserRole" data-source-line="105" data-uid="ent0028" id="entity_UserRole"><rect fill="#F1F1F1" height="48" rx="2.5" ry="2.5" style="stroke:#181818;stroke-width:0.5;" width="91.3038" x="815.9643" y="2013.0609"/><ellipse cx="830.9643" cy="2029.0609" fill="#EB937F" rx="11" ry="11" style="stroke:#181818;stroke-width:1;"/><path d="M827.3237,2035.5609 L827.3237,2023.4203 L834.9799,2023.4203 L834.9799,2025.5453 L829.6987,2025.5453 L829.6987,2028.2015 L834.7143,2028.2015 L834.7143,2030.3265 L829.6987,2030.3265 L829.6987,2033.4359 L834.9799,2033.4359 L834.9799,2035.5609 L827.3237,2035.5609 Z " fill="#000000"/><text fill="#000000" font-family="sans-serif" font-size="14" lengthAdjust="spacing" textLength="59.3038" x="844.9643" y="2034.4929">UserRole</text><line style="stroke:#181818;stroke-width:0.5;" x1="816.9643" x2="906.2681" y1="2045.0609" y2="2045.0609"/><line style="stroke:#181818;stroke-width:0.5;" x1="816.9643" x2="906.2681" y1="2053.0609" y2="2053.0609"/></g><!--class PermissionAction--><g class="entity" data-entity="PermissionAction" data-source-line="106" data-uid="ent0029" id="entity_PermissionAction"><rect fill="#F1F1F1" height="48" rx="2.5" ry="2.5" style="stroke:#181818;stroke-width:0.5;" width="146.4496" x="431.3814" y="1905.993"/><ellipse cx="446.3814" cy="1921.993" fill="#EB937F" rx="11" ry="11" style="stroke:#181818;stroke-width:1;"/><path d="M442.7408,1928.493 L442.7408,1916.3523 L450.397,1916.3523 L450.397,1918.4773 L445.1158,1918.4773 L445.1158,1921.1336 L450.1314,1921.1336 L450.1314,1923.2586 L445.1158,1923.2586 L445.1158,1926.368 L450.397,1926.368 L450.397,1928.493 L442.7408,1928.493 Z " fill="#000000"/><text fill="#000000" font-family="sans-serif" font-size="14" lengthAdjust="spacing" textLength="114.4496" x="460.3814" y="1927.4249">PermissionAction</text><line style="stroke:#181818;stroke-width:0.5;" x1="432.3814" x2="576.831" y1="1937.993" y2="1937.993"/><line style="stroke:#181818;stroke-width:0.5;" x1="432.3814" x2="576.831" y1="1945.993" y2="1945.993"/></g><!--class AccessRule--><g class="entity" data-entity="AccessRule" data-source-line="107" data-uid="ent0030" id="entity_AccessRule"><rect fill="#F1F1F1" height="67.0679" rx="2.5" ry="2.5" style="stroke:#181818;stroke-width:0.5;" width="178.9913" x="772.1205" y="1905.993"/><ellipse cx="821.0853" cy="1921.993" fill="#ADD1B2" rx="11" ry="11" style="stroke:#181818;stroke-width:1;"/><path d="M820.5541,1928.9148 Q818.8041,1928.9148 817.6635,1928.1805 Q816.5385,1927.4305 815.976,1926.0867 Q815.4291,1924.7273 815.4291,1922.9305 Q815.4291,1920.8992 816.0853,1919.4461 Q816.7416,1917.993 818.0228,1917.2117 Q819.3041,1916.4305 821.1791,1916.4305 Q822.0697,1916.4305 822.7416,1916.618 Q823.4135,1916.7898 824.101,1917.1336 L823.2885,1919.1492 Q822.6635,1918.8367 822.1166,1918.7117 Q821.5853,1918.5867 821.101,1918.5867 Q819.9291,1918.5867 819.226,1919.118 Q818.5228,1919.6492 818.226,1920.6023 Q817.9291,1921.5555 817.9291,1922.8211 Q817.9291,1924.8367 818.6478,1925.8055 Q819.3666,1926.7586 820.9603,1926.7586 Q821.5541,1926.7586 822.1791,1926.6023 Q822.8041,1926.4461 823.6322,1926.0711 L823.6322,1928.2898 Q822.8978,1928.6023 822.101,1928.7586 Q821.3197,1928.9148 820.5541,1928.9148 Z " fill="#000000"/><text fill="#000000" font-family="sans-serif" font-size="14" lengthAdjust="spacing" textLength="72.5617" x="841.5853" y="1927.4249">AccessRule</text><line style="stroke:#181818;stroke-width:0.5;" x1="773.1205" x2="950.1119" y1="1937.993" y2="1937.993"/><text fill="#000000" font-family="sans-serif" font-size="14" lengthAdjust="spacing" textLength="166.9913" x="778.1205" y="1956.9589">+allowed_roles: frozenset</text><line style="stroke:#181818;stroke-width:0.5;" x1="773.1205" x2="950.1119" y1="1965.0609" y2="1965.0609"/></g><!--class ProxyDispatcher--><g class="entity" data-entity="ProxyDispatcher" data-source-line="110" data-uid="ent0031" id="entity_ProxyDispatcher"><rect fill="#F1F1F1" height="105.2038" rx="2.5" ry="2.5" style="stroke:#181818;stroke-width:0.5;" width="159.9375" x="827.8306" y="1669.5492"/><ellipse cx="851.6344" cy="1685.5492" fill="#ADD1B2" rx="11" ry="11" style="stroke:#181818;stroke-width:1;"/><path d="M851.1031,1692.4711 Q849.3531,1692.4711 848.2125,1691.7367 Q847.0875,1690.9867 846.525,1689.643 Q845.9781,1688.2836 845.9781,1686.4867 Q845.9781,1684.4555 846.6344,1683.0024 Q847.2906,1681.5492 848.5719,1680.768 Q849.8531,1679.9867 851.7281,1679.9867 Q852.6188,1679.9867 853.2906,1680.1742 Q853.9625,1680.3461 854.65,1680.6899 L853.8375,1682.7055 Q853.2125,1682.393 852.6656,1682.268 Q852.1344,1682.143 851.65,1682.143 Q850.4781,1682.143 849.775,1682.6742 Q849.0719,1683.2055 848.775,1684.1586 Q848.4781,1685.1117 848.4781,1686.3774 Q848.4781,1688.393 849.1969,1689.3617 Q849.9156,1690.3149 851.5094,1690.3149 Q852.1031,1690.3149 852.7281,1690.1586 Q853.3531,1690.0024 854.1813,1689.6274 L854.1813,1691.8461 Q853.4469,1692.1586 852.65,1692.3149 Q851.8688,1692.4711 851.1031,1692.4711 Z " fill="#000000"/><text fill="#000000" font-family="sans-serif" font-size="14" lengthAdjust="spacing" textLength="108.3736" x="867.5908" y="1690.9812">ProxyDispatcher</text><line style="stroke:#181818;stroke-width:0.5;" x1="828.8306" x2="986.7681" y1="1701.5492" y2="1701.5492"/><text fill="#000000" font-family="sans-serif" font-size="14" lengthAdjust="spacing" textLength="107.1136" x="833.8306" y="1720.5152">+user_roles: dict</text><text fill="#000000" font-family="sans-serif" font-size="14" lengthAdjust="spacing" textLength="147.9375" x="833.8306" y="1739.5831">+moderator_code: str?</text><text fill="#000000" font-family="sans-serif" font-size="14" lengthAdjust="spacing" textLength="72.0437" x="833.8306" y="1758.651">+rules: dict</text><line style="stroke:#181818;stroke-width:0.5;" x1="828.8306" x2="986.7681" y1="1766.753" y2="1766.753"/></g><!--class ClientHandler--><g class="entity" data-entity="ClientHandler" data-source-line="115" data-uid="ent0032" id="entity_ClientHandler"><rect fill="#F1F1F1" height="162.4075" rx="2.5" ry="2.5" style="stroke:#181818;stroke-width:0.5;" width="232.8352" x="446.2473" y="1621.8794"/><ellipse cx="513.1881" cy="1637.8794" fill="#ADD1B2" rx="11" ry="11" style="stroke:#181818;stroke-width:1;"/><path d="M512.6569,1644.8013 Q510.9069,1644.8013 509.7662,1644.0669 Q508.6412,1643.3169 508.0787,1641.9732 Q507.5319,1640.6138 507.5319,1638.8169 Q507.5319,1636.7857 508.1881,1635.3326 Q508.8444,1633.8794 510.1256,1633.0982 Q511.4069,1632.3169 513.2819,1632.3169 Q514.1725,1632.3169 514.8444,1632.5044 Q515.5162,1632.6763 516.2037,1633.0201 L515.3912,1635.0357 Q514.7662,1634.7232 514.2194,1634.5982 Q513.6881,1634.4732 513.2037,1634.4732 Q512.0319,1634.4732 511.3287,1635.0044 Q510.6256,1635.5357 510.3287,1636.4888 Q510.0319,1637.4419 510.0319,1638.7076 Q510.0319,1640.7232 510.7506,1641.6919 Q511.4694,1642.6451 513.0631,1642.6451 Q513.6569,1642.6451 514.2819,1642.4888 Q514.9069,1642.3326 515.735,1641.9576 L515.735,1644.1763 Q515.0006,1644.4888 514.2037,1644.6451 Q513.4225,1644.8013 512.6569,1644.8013 Z " fill="#000000"/><text fill="#000000" font-family="sans-serif" font-size="14" lengthAdjust="spacing" textLength="90.4536" x="533.6881" y="1643.3114">ClientHandler</text><line style="stroke:#181818;stroke-width:0.5;" x1="447.2473" x2="678.0825" y1="1653.8794" y2="1653.8794"/><text fill="#000000" font-family="sans-serif" font-size="14" lengthAdjust="spacing" textLength="215.4172" x="452.2473" y="1672.8454">+dispatcher: DispatcherInterface</text><text fill="#000000" font-family="sans-serif" font-size="14" lengthAdjust="spacing" textLength="95.3676" x="452.2473" y="1691.9133">+bot: RelayBot</text><text fill="#000000" font-family="sans-serif" font-size="14" lengthAdjust="spacing" textLength="99.8896" x="452.2473" y="1710.9812">+user_code: str</text><line style="stroke:#181818;stroke-width:0.5;" x1="447.2473" x2="678.0825" y1="1719.0832" y2="1719.0832"/><text fill="#000000" font-family="sans-serif" font-size="14" lengthAdjust="spacing" textLength="110.2356" x="452.2473" y="1738.0491">+run(): awaitable</text><text fill="#000000" font-family="sans-serif" font-size="14" lengthAdjust="spacing" textLength="167.2994" x="452.2473" y="1757.117">+on_msg(msg): awaitable</text><text fill="#000000" font-family="sans-serif" font-size="14" lengthAdjust="spacing" textLength="220.8352" x="452.2473" y="1776.185">+on_sys_msg(sys_msg): awaitable</text></g><!--class RelayBot--><g class="entity" data-entity="RelayBot" data-source-line="123" data-uid="ent0033" id="entity_RelayBot"><rect fill="#F1F1F1" height="48" rx="2.5" ry="2.5" style="stroke:#181818;stroke-width:0.5;" width="89.8338" x="306.5476" y="1905.993"/><ellipse cx="321.5476" cy="1921.993" fill="#ADD1B2" rx="11" ry="11" style="stroke:#181818;stroke-width:1;"/><path d="M321.0164,1928.9148 Q319.2664,1928.9148 318.1258,1928.1805 Q317.0008,1927.4305 316.4383,1926.0867 Q315.8914,1924.7273 315.8914,1922.9305 Q315.8914,1920.8992 316.5476,1919.4461 Q317.2039,1917.993 318.4851,1917.2117 Q319.7664,1916.4305 321.6414,1916.4305 Q322.532,1916.4305 323.2039,1916.618 Q323.8758,1916.7898 324.5633,1917.1336 L323.7508,1919.1492 Q323.1258,1918.8367 322.5789,1918.7117 Q322.0476,1918.5867 321.5633,1918.5867 Q320.3914,1918.5867 319.6883,1919.118 Q318.9851,1919.6492 318.6883,1920.6023 Q318.3914,1921.5555 318.3914,1922.8211 Q318.3914,1924.8367 319.1101,1925.8055 Q319.8289,1926.7586 321.4226,1926.7586 Q322.0164,1926.7586 322.6414,1926.6023 Q323.2664,1926.4461 324.0945,1926.0711 L324.0945,1928.2898 Q323.3601,1928.6023 322.5633,1928.7586 Q321.782,1928.9148 321.0164,1928.9148 Z " fill="#000000"/><text fill="#000000" font-family="sans-serif" font-size="14" lengthAdjust="spacing" textLength="57.8338" x="335.5476" y="1927.4249">RelayBot</text><line style="stroke:#181818;stroke-width:0.5;" x1="307.5476" x2="395.3814" y1="1937.993" y2="1937.993"/><line style="stroke:#181818;stroke-width:0.5;" x1="307.5476" x2="395.3814" y1="1945.993" y2="1945.993"/></g><!--class Chat--><g class="entity" data-entity="Chat" data-source-line="144" data-uid="ent0051" id="entity_Chat"><rect fill="#F1F1F1" height="124.2717" rx="2.5" ry="2.5" style="stroke:#181818;stroke-width:0.5;" width="224.3932" x="229.3603" y="518.6113"/><ellipse cx="322.845" cy="534.6113" fill="#A9DCDF" rx="11" ry="11" style="stroke:#181818;stroke-width:1;"/><path d="M318.0169,540.3613 L321.3606,528.1738 L324.5012,528.1738 L327.8762,540.3613 L325.4075,540.3613 L324.6731,537.3456 L321.1575,537.3456 L320.4075,540.3613 L318.0169,540.3613 Z M322.4231,532.3144 L321.6731,535.3144 L324.1887,535.3144 L323.47,532.3144 Q323.3294,531.7363 323.2044,531.1894 Q323.0794,530.6269 322.9387,530.0488 Q322.8294,530.6269 322.6887,531.1894 Q322.5481,531.7363 322.4231,532.3144 Z " fill="#000000"/><text fill="#000000" font-family="sans-serif" font-size="14" font-style="italic" lengthAdjust="spacing" textLength="28.9239" x="343.345" y="540.0432">Chat</text><line style="stroke:#181818;stroke-width:0.5;" x1="230.3603" x2="452.7535" y1="550.6113" y2="550.6113"/><text fill="#000000" font-family="sans-serif" font-size="14" lengthAdjust="spacing" textLength="70.4337" x="235.3603" y="569.5772">+name: str</text><text fill="#000000" font-family="sans-serif" font-size="14" lengthAdjust="spacing" textLength="99.8476" x="235.3603" y="588.6451">+messages: list</text><line style="stroke:#181818;stroke-width:0.5;" x1="230.3603" x2="452.7535" y1="596.7471" y2="596.7471"/><text fill="#000000" font-family="sans-serif" font-size="14" lengthAdjust="spacing" textLength="205.6032" x="235.3603" y="615.713">+add_message(msg): awaitable</text><text fill="#000000" font-family="sans-serif" font-size="14" lengthAdjust="spacing" textLength="212.3932" x="235.3603" y="634.7809">+send_message(msg): awaitable</text></g><!--class RemoteChat--><g class="entity" data-entity="RemoteChat" data-source-line="150" data-uid="ent0052" id="entity_RemoteChat"><rect fill="#F1F1F1" height="105.2038" rx="2.5" ry="2.5" style="stroke:#181818;stroke-width:0.5;" width="211.3172" x="27" y="682.8829"/><ellipse cx="87.6478" cy="698.8829" fill="#ADD1B2" rx="11" ry="11" style="stroke:#181818;stroke-width:1;"/><path d="M87.1165,705.8048 Q85.3665,705.8048 84.2259,705.0704 Q83.1009,704.3204 82.5384,702.9767 Q81.9915,701.6173 81.9915,699.8204 Q81.9915,697.7892 82.6478,696.336 Q83.304,694.8829 84.5853,694.1017 Q85.8665,693.3204 87.7415,693.3204 Q88.6321,693.3204 89.304,693.5079 Q89.9759,693.6798 90.6634,694.0235 L89.8509,696.0392 Q89.2259,695.7267 88.679,695.6017 Q88.1478,695.4767 87.6634,695.4767 Q86.4915,695.4767 85.7884,696.0079 Q85.0853,696.5392 84.7884,697.4923 Q84.4915,698.4454 84.4915,699.711 Q84.4915,701.7267 85.2103,702.6954 Q85.929,703.6485 87.5228,703.6485 Q88.1165,703.6485 88.7415,703.4923 Q89.3665,703.336 90.1946,702.961 L90.1946,705.1798 Q89.4603,705.4923 88.6634,705.6485 Q87.8821,705.8048 87.1165,705.8048 Z " fill="#000000"/><text fill="#000000" font-family="sans-serif" font-size="14" lengthAdjust="spacing" textLength="81.5217" x="108.1478" y="704.3149">RemoteChat</text><line style="stroke:#181818;stroke-width:0.5;" x1="28" x2="237.3172" y1="714.8829" y2="714.8829"/><text fill="#000000" font-family="sans-serif" font-size="14" lengthAdjust="spacing" textLength="199.3172" x="33" y="733.8489">+messages_wait_for_sync: dict</text><text fill="#000000" font-family="sans-serif" font-size="14" lengthAdjust="spacing" textLength="177.3793" x="33" y="752.9168">+messages_sync_count: int</text><line style="stroke:#181818;stroke-width:0.5;" x1="28" x2="237.3172" y1="761.0188" y2="761.0188"/><text fill="#000000" font-family="sans-serif" font-size="14" lengthAdjust="spacing" textLength="110.0256" x="33" y="779.9847">+on_tsr(tsr): void</text></g><!--class ChatBot--><g class="entity" data-entity="ChatBot" data-source-line="155" data-uid="ent0053" id="entity_ChatBot"><rect fill="#F1F1F1" height="67.0679" rx="2.5" ry="2.5" style="stroke:#181818;stroke-width:0.5;" width="241.2771" x="258.3172" y="708.3068"/><ellipse cx="348.1899" cy="724.3068" fill="#ADD1B2" rx="11" ry="11" style="stroke:#181818;stroke-width:1;"/><path d="M347.6586,731.2287 Q345.9086,731.2287 344.768,730.4943 Q343.643,729.7443 343.0805,728.4006 Q342.5336,727.0412 342.5336,725.2443 Q342.5336,723.2131 343.1899,721.7599 Q343.8461,720.3068 345.1274,719.5256 Q346.4086,718.7443 348.2836,718.7443 Q349.1743,718.7443 349.8461,718.9318 Q350.518,719.1037 351.2055,719.4474 L350.393,721.4631 Q349.768,721.1506 349.2211,721.0256 Q348.6899,720.9006 348.2055,720.9006 Q347.0336,720.9006 346.3305,721.4318 Q345.6274,721.9631 345.3305,722.9162 Q345.0336,723.8693 345.0336,725.1349 Q345.0336,727.1506 345.7524,728.1193 Q346.4711,729.0724 348.0649,729.0724 Q348.6586,729.0724 349.2836,728.9162 Q349.9086,728.7599 350.7368,728.3849 L350.7368,730.6037 Q350.0024,730.9162 349.2055,731.0724 Q348.4243,731.2287 347.6586,731.2287 Z " fill="#000000"/><text fill="#000000" font-family="sans-serif" font-size="14" lengthAdjust="spacing" textLength="53.0318" x="368.6899" y="729.7388">ChatBot</text><line style="stroke:#181818;stroke-width:0.5;" x1="259.3172" x2="498.5944" y1="740.3068" y2="740.3068"/><line style="stroke:#181818;stroke-width:0.5;" x1="259.3172" x2="498.5944" y1="748.3068" y2="748.3068"/><text fill="#000000" font-family="sans-serif" font-size="14" lengthAdjust="spacing" textLength="229.2771" x="264.3172" y="767.2727">+add_commands(commands): void</text></g><!--class Bot--><g class="entity" data-entity="Bot" data-source-line="158" data-uid="ent0054" id="entity_Bot"><rect fill="#F1F1F1" height="143.3396" rx="2.5" ry="2.5" style="stroke:#181818;stroke-width:0.5;" width="254.9131" x="152.8775" y="828.0867"/><ellipse cx="264.7721" cy="844.0867" fill="#ADD1B2" rx="11" ry="11" style="stroke:#181818;stroke-width:1;"/><path d="M264.2409,851.0085 Q262.4909,851.0085 261.3502,850.2742 Q260.2252,849.5242 259.6627,848.1804 Q259.1159,846.821 259.1159,845.0242 Q259.1159,842.9929 259.7721,841.5398 Q260.4284,840.0867 261.7096,839.3054 Q262.9909,838.5242 264.8659,838.5242 Q265.7565,838.5242 266.4284,838.7117 Q267.1002,838.8835 267.7877,839.2273 L266.9752,841.2429 Q266.3502,840.9304 265.8034,840.8054 Q265.2721,840.6804 264.7877,840.6804 Q263.6159,840.6804 262.9127,841.2117 Q262.2096,841.7429 261.9127,842.696 Q261.6159,843.6492 261.6159,844.9148 Q261.6159,846.9304 262.3346,847.8992 Q263.0534,848.8523 264.6471,848.8523 Q265.2409,848.8523 265.8659,848.696 Q266.4909,848.5398 267.319,848.1648 L267.319,850.3835 Q266.5846,850.696 265.7877,850.8523 Q265.0065,851.0085 264.2409,851.0085 Z " fill="#000000"/><text fill="#000000" font-family="sans-serif" font-size="14" lengthAdjust="spacing" textLength="22.6239" x="285.2721" y="849.5186">Bot</text><line style="stroke:#181818;stroke-width:0.5;" x1="153.8775" x2="406.7906" y1="860.0867" y2="860.0867"/><text fill="#000000" font-family="sans-serif" font-size="14" lengthAdjust="spacing" textLength="104.9296" x="158.8775" y="879.0526">+chat_name: str</text><text fill="#000000" font-family="sans-serif" font-size="14" lengthAdjust="spacing" textLength="98.7836" x="158.8775" y="898.1205">+bot_name: str</text><text fill="#000000" font-family="sans-serif" font-size="14" lengthAdjust="spacing" textLength="242.9131" x="158.8775" y="917.1884">+command_router: CommandRouter</text><line style="stroke:#181818;stroke-width:0.5;" x1="153.8775" x2="406.7906" y1="925.2904" y2="925.2904"/><text fill="#000000" font-family="sans-serif" font-size="14" lengthAdjust="spacing" textLength="219.3372" x="158.8775" y="944.2563">+async_send_text(text): awaitable</text><text fill="#000000" font-family="sans-serif" font-size="14" lengthAdjust="spacing" textLength="204.5952" x="158.8775" y="963.3243">+async_on_text(text): awaitable</text></g><!--class FuncArgsPair--><g class="entity" data-entity="FuncArgsPair" data-source-line="165" data-uid="ent0055" id="entity_FuncArgsPair"><rect fill="#F1F1F1" height="86.1358" rx="2.5" ry="2.5" style="stroke:#181818;stroke-width:0.5;" width="119.0517" x="317.6652" y="1156.6301"/><ellipse cx="332.6652" cy="1172.6301" fill="#ADD1B2" rx="11" ry="11" style="stroke:#181818;stroke-width:1;"/><path d="M332.134,1179.5519 Q330.384,1179.5519 329.2433,1178.8176 Q328.1183,1178.0676 327.5558,1176.7238 Q327.009,1175.3644 327.009,1173.5676 Q327.009,1171.5363 327.6652,1170.0832 Q328.3215,1168.6301 329.6027,1167.8488 Q330.884,1167.0676 332.759,1167.0676 Q333.6496,1167.0676 334.3215,1167.2551 Q334.9933,1167.4269 335.6808,1167.7707 L334.8683,1169.7863 Q334.2433,1169.4738 333.6965,1169.3488 Q333.1652,1169.2238 332.6808,1169.2238 Q331.509,1169.2238 330.8058,1169.7551 Q330.1027,1170.2863 329.8058,1171.2394 Q329.509,1172.1926 329.509,1173.4582 Q329.509,1175.4738 330.2277,1176.4426 Q330.9465,1177.3957 332.5402,1177.3957 Q333.134,1177.3957 333.759,1177.2394 Q334.384,1177.0832 335.2121,1176.7082 L335.2121,1178.9269 Q334.4777,1179.2394 333.6808,1179.3957 Q332.8996,1179.5519 332.134,1179.5519 Z " fill="#000000"/><text fill="#000000" font-family="sans-serif" font-size="14" lengthAdjust="spacing" textLength="87.0517" x="346.6652" y="1178.062">FuncArgsPair</text><line style="stroke:#181818;stroke-width:0.5;" x1="318.6652" x2="435.7169" y1="1188.6301" y2="1188.6301"/><text fill="#000000" font-family="sans-serif" font-size="14" lengthAdjust="spacing" textLength="62.6357" x="323.6652" y="1207.596">+function</text><text fill="#000000" font-family="sans-serif" font-size="14" lengthAdjust="spacing" textLength="86.8277" x="323.6652" y="1226.6639">+kwargs: dict</text><line style="stroke:#181818;stroke-width:0.5;" x1="318.6652" x2="435.7169" y1="1234.7659" y2="1234.7659"/></g><!--class CommandRouter--><g class="entity" data-entity="CommandRouter" data-source-line="169" data-uid="ent0056" id="entity_CommandRouter"><rect fill="#F1F1F1" height="105.2038" rx="2.5" ry="2.5" style="stroke:#181818;stroke-width:0.5;" width="326.2288" x="159.7052" y="1011.4263"/><ellipse cx="261.9818" cy="1027.4263" fill="#ADD1B2" rx="11" ry="11" style="stroke:#181818;stroke-width:1;"/><path d="M261.4505,1034.3481 Q259.7005,1034.3481 258.5599,1033.6138 Q257.4349,1032.8638 256.8724,1031.52 Q256.3255,1030.1606 256.3255,1028.3638 Q256.3255,1026.3325 256.9818,1024.8794 Q257.638,1023.4263 258.9193,1022.645 Q260.2005,1021.8638 262.0755,1021.8638 Q262.9662,1021.8638 263.638,1022.0513 Q264.3099,1022.2231 264.9974,1022.5669 L264.1849,1024.5825 Q263.5599,1024.27 263.013,1024.145 Q262.4818,1024.02 261.9974,1024.02 Q260.8255,1024.02 260.1224,1024.5513 Q259.4193,1025.0825 259.1224,1026.0356 Q258.8255,1026.9888 258.8255,1028.2544 Q258.8255,1030.27 259.5443,1031.2388 Q260.263,1032.1919 261.8568,1032.1919 Q262.4505,1032.1919 263.0755,1032.0356 Q263.7005,1031.8794 264.5287,1031.5044 L264.5287,1033.7231 Q263.7943,1034.0356 262.9974,1034.1919 Q262.2162,1034.3481 261.4505,1034.3481 Z " fill="#000000"/><text fill="#000000" font-family="sans-serif" font-size="14" lengthAdjust="spacing" textLength="113.1756" x="282.4818" y="1032.8582">CommandRouter</text><line style="stroke:#181818;stroke-width:0.5;" x1="160.7052" x2="484.934" y1="1043.4263" y2="1043.4263"/><text fill="#000000" font-family="sans-serif" font-size="14" lengthAdjust="spacing" textLength="142.7995" x="165.7052" y="1062.3922">+commands_dict: dict</text><line style="stroke:#181818;stroke-width:0.5;" x1="160.7052" x2="484.934" y1="1070.4942" y2="1070.4942"/><text fill="#000000" font-family="sans-serif" font-size="14" lengthAdjust="spacing" textLength="314.2288" x="165.7052" y="1089.4601">+add_command(command, function, args): void</text><text fill="#000000" font-family="sans-serif" font-size="14" lengthAdjust="spacing" textLength="191.7013" x="165.7052" y="1108.528">+async_route(text): awaitable</text></g><!--class Client--><g class="entity" data-entity="Client" data-source-line="174" data-uid="ent0057" id="entity_Client"><rect fill="#F1F1F1" height="124.2717" rx="2.5" ry="2.5" style="stroke:#181818;stroke-width:0.5;" width="306.3069" x="520.5944" y="518.6113"/><ellipse cx="650.6609" cy="534.6113" fill="#ADD1B2" rx="11" ry="11" style="stroke:#181818;stroke-width:1;"/><path d="M650.1296,541.5331 Q648.3796,541.5331 647.239,540.7988 Q646.114,540.0488 645.5515,538.705 Q645.0046,537.3456 645.0046,535.5488 Q645.0046,533.5175 645.6609,532.0644 Q646.3171,530.6113 647.5984,529.83 Q648.8796,529.0488 650.7546,529.0488 Q651.6453,529.0488 652.3171,529.2363 Q652.989,529.4081 653.6765,529.7519 L652.864,531.7675 Q652.239,531.455 651.6921,531.33 Q651.1609,531.205 650.6765,531.205 Q649.5046,531.205 648.8015,531.7363 Q648.0984,532.2675 647.8015,533.2206 Q647.5046,534.1738 647.5046,535.4394 Q647.5046,537.455 648.2234,538.4238 Q648.9421,539.3769 650.5359,539.3769 Q651.1296,539.3769 651.7546,539.2206 Q652.3796,539.0644 653.2078,538.6894 L653.2078,540.9081 Q652.4734,541.2206 651.6765,541.3769 Q650.8953,541.5331 650.1296,541.5331 Z " fill="#000000"/><text fill="#000000" font-family="sans-serif" font-size="14" lengthAdjust="spacing" textLength="37.6738" x="671.1609" y="540.0432">Client</text><line style="stroke:#181818;stroke-width:0.5;" x1="521.5944" x2="825.9013" y1="550.6113" y2="550.6113"/><text fill="#000000" font-family="sans-serif" font-size="14" lengthAdjust="spacing" textLength="66.4717" x="526.5944" y="569.5772">+run_loop</text><line style="stroke:#181818;stroke-width:0.5;" x1="521.5944" x2="825.9013" y1="577.6792" y2="577.6792"/><text fill="#000000" font-family="sans-serif" font-size="14" lengthAdjust="spacing" textLength="294.3069" x="526.5944" y="596.6451">+start_connection_thread(ip, port): awaitable</text><text fill="#000000" font-family="sans-serif" font-size="14" lengthAdjust="spacing" textLength="185.5833" x="526.5944" y="615.713">+run_net(ip, port): awaitable</text><text fill="#000000" font-family="sans-serif" font-size="14" lengthAdjust="spacing" textLength="158.2414" x="526.5944" y="634.7809">+disconnect(): awaitable</text></g><!--class ClientChatBot--><g class="entity" data-entity="ClientChatBot" data-source-line="180" data-uid="ent0058" id="entity_ClientChatBot"><rect fill="#F1F1F1" height="48" rx="2.5" ry="2.5" style="stroke:#181818;stroke-width:0.5;" width="122.7056" x="427.7906" y="828.0867"/><ellipse cx="442.7906" cy="844.0867" fill="#ADD1B2" rx="11" ry="11" style="stroke:#181818;stroke-width:1;"/><path d="M442.2593,851.0085 Q440.5093,851.0085 439.3687,850.2742 Q438.2437,849.5242 437.6812,848.1804 Q437.1343,846.821 437.1343,845.0242 Q437.1343,842.9929 437.7906,841.5398 Q438.4468,840.0867 439.7281,839.3054 Q441.0093,838.5242 442.8843,838.5242 Q443.775,838.5242 444.4468,838.7117 Q445.1187,838.8835 445.8062,839.2273 L444.9937,841.2429 Q444.3687,840.9304 443.8218,840.8054 Q443.2906,840.6804 442.8062,840.6804 Q441.6343,840.6804 440.9312,841.2117 Q440.2281,841.7429 439.9312,842.696 Q439.6343,843.6492 439.6343,844.9148 Q439.6343,846.9304 440.3531,847.8992 Q441.0718,848.8523 442.6656,848.8523 Q443.2593,848.8523 443.8843,848.696 Q444.5093,848.5398 445.3375,848.1648 L445.3375,850.3835 Q444.6031,850.696 443.8062,850.8523 Q443.025,851.0085 442.2593,851.0085 Z " fill="#000000"/><text fill="#000000" font-family="sans-serif" font-size="14" lengthAdjust="spacing" textLength="90.7056" x="456.7906" y="849.5186">ClientChatBot</text><line style="stroke:#181818;stroke-width:0.5;" x1="428.7906" x2="549.4962" y1="860.0867" y2="860.0867"/><line style="stroke:#181818;stroke-width:0.5;" x1="428.7906" x2="549.4962" y1="868.0867" y2="868.0867"/></g><!--class UserClient--><g class="entity" data-entity="UserClient" data-source-line="181" data-uid="ent0059" id="entity_UserClient"><rect fill="#F1F1F1" height="143.3396" rx="2.5" ry="2.5" style="stroke:#181818;stroke-width:0.5;" width="223.4272" x="539.6915" y="325.2717"/><ellipse cx="613.0092" cy="341.2717" fill="#ADD1B2" rx="11" ry="11" style="stroke:#181818;stroke-width:1;"/><path d="M612.478,348.1935 Q610.728,348.1935 609.5874,347.4592 Q608.4624,346.7092 607.8999,345.3654 Q607.353,344.006 607.353,342.2092 Q607.353,340.1779 608.0092,338.7248 Q608.6655,337.2717 609.9467,336.4904 Q611.228,335.7092 613.103,335.7092 Q613.9936,335.7092 614.6655,335.8967 Q615.3374,336.0685 616.0249,336.4123 L615.2124,338.4279 Q614.5874,338.1154 614.0405,337.9904 Q613.5092,337.8654 613.0249,337.8654 Q611.853,337.8654 611.1499,338.3967 Q610.4467,338.9279 610.1499,339.881 Q609.853,340.8342 609.853,342.0998 Q609.853,344.1154 610.5717,345.0842 Q611.2905,346.0373 612.8842,346.0373 Q613.478,346.0373 614.103,345.881 Q614.728,345.7248 615.5561,345.3498 L615.5561,347.5685 Q614.8217,347.881 614.0249,348.0373 Q613.2436,348.1935 612.478,348.1935 Z " fill="#000000"/><text fill="#000000" font-family="sans-serif" font-size="14" lengthAdjust="spacing" textLength="68.2917" x="633.5092" y="346.7036">UserClient</text><line style="stroke:#181818;stroke-width:0.5;" x1="540.6915" x2="762.1187" y1="357.2717" y2="357.2717"/><text fill="#000000" font-family="sans-serif" font-size="14" lengthAdjust="spacing" textLength="74.3817" x="545.6915" y="376.2376">+chats: dict</text><line style="stroke:#181818;stroke-width:0.5;" x1="540.6915" x2="762.1187" y1="384.3396" y2="384.3396"/><text fill="#000000" font-family="sans-serif" font-size="14" lengthAdjust="spacing" textLength="199.2892" x="545.6915" y="403.3055">+create_chat(chat_name): void</text><text fill="#000000" font-family="sans-serif" font-size="14" lengthAdjust="spacing" textLength="167.2994" x="545.6915" y="422.3734">+on_msg(msg): awaitable</text><text fill="#000000" font-family="sans-serif" font-size="14" lengthAdjust="spacing" textLength="145.5715" x="545.6915" y="441.4414">+on_tsr(tsr): awaitable</text><text fill="#000000" font-family="sans-serif" font-size="14" lengthAdjust="spacing" textLength="211.4272" x="545.6915" y="460.5093">+send_user_text(chat, text): void</text></g><!--class APPClient--><g class="entity" data-entity="APPClient" data-source-line="188" data-uid="ent0060" id="entity_APPClient"><rect fill="#F1F1F1" height="105.2038" rx="2.5" ry="2.5" style="stroke:#181818;stroke-width:0.5;" width="195.3713" x="590.9573" y="180.0679"/><ellipse cx="652.6131" cy="196.0679" fill="#ADD1B2" rx="11" ry="11" style="stroke:#181818;stroke-width:1;"/><path d="M652.0818,202.9898 Q650.3318,202.9898 649.1912,202.2554 Q648.0662,201.5054 647.5037,200.1617 Q646.9568,198.8023 646.9568,197.0054 Q646.9568,194.9742 647.6131,193.521 Q648.2693,192.0679 649.5506,191.2867 Q650.8318,190.5054 652.7068,190.5054 Q653.5975,190.5054 654.2693,190.6929 Q654.9412,190.8648 655.6287,191.2085 L654.8162,193.2242 Q654.1912,192.9117 653.6443,192.7867 Q653.1131,192.6617 652.6287,192.6617 Q651.4568,192.6617 650.7537,193.1929 Q650.0506,193.7242 649.7537,194.6773 Q649.4568,195.6304 649.4568,196.896 Q649.4568,198.9117 650.1756,199.8804 Q650.8943,200.8335 652.4881,200.8335 Q653.0818,200.8335 653.7068,200.6773 Q654.3318,200.521 655.16,200.146 L655.16,202.3648 Q654.4256,202.6773 653.6287,202.8335 Q652.8475,202.9898 652.0818,202.9898 Z " fill="#000000"/><text fill="#000000" font-family="sans-serif" font-size="14" lengthAdjust="spacing" textLength="63.5598" x="673.1131" y="201.4999">APPClient</text><line style="stroke:#181818;stroke-width:0.5;" x1="591.9573" x2="785.3286" y1="212.0679" y2="212.0679"/><text fill="#000000" font-family="sans-serif" font-size="14" lengthAdjust="spacing" textLength="148.7774" x="596.9573" y="231.0339">+on_message_callback</text><text fill="#000000" font-family="sans-serif" font-size="14" lengthAdjust="spacing" textLength="166.0954" x="596.9573" y="250.1018">+on_chat_added_callback</text><text fill="#000000" font-family="sans-serif" font-size="14" lengthAdjust="spacing" textLength="183.3713" x="596.9573" y="269.1697">+on_chat_removed_callback</text><line style="stroke:#181818;stroke-width:0.5;" x1="591.9573" x2="785.3286" y1="277.2717" y2="277.2717"/></g><!--class TUI_Adapter--><g class="entity" data-entity="TUI_Adapter" data-source-line="193" data-uid="ent0061" id="entity_TUI_Adapter"><rect fill="#F1F1F1" height="48" rx="2.5" ry="2.5" style="stroke:#181818;stroke-width:0.5;" width="113.7317" x="457.2256" y="208.6698"/><ellipse cx="472.2256" cy="224.6698" fill="#ADD1B2" rx="11" ry="11" style="stroke:#181818;stroke-width:1;"/><path d="M471.6944,231.5917 Q469.9444,231.5917 468.8037,230.8573 Q467.6787,230.1073 467.1162,228.7635 Q466.5694,227.4042 466.5694,225.6073 Q466.5694,223.576 467.2256,222.1229 Q467.8819,220.6698 469.1631,219.8885 Q470.4444,219.1073 472.3194,219.1073 Q473.21,219.1073 473.8819,219.2948 Q474.5537,219.4667 475.2412,219.8104 L474.4287,221.826 Q473.8037,221.5135 473.2569,221.3885 Q472.7256,221.2635 472.2412,221.2635 Q471.0694,221.2635 470.3662,221.7948 Q469.6631,222.326 469.3662,223.2792 Q469.0694,224.2323 469.0694,225.4979 Q469.0694,227.5135 469.7881,228.4823 Q470.5069,229.4354 472.1006,229.4354 Q472.6944,229.4354 473.3194,229.2792 Q473.9444,229.1229 474.7725,228.7479 L474.7725,230.9667 Q474.0381,231.2792 473.2412,231.4354 Q472.46,231.5917 471.6944,231.5917 Z " fill="#000000"/><text fill="#000000" font-family="sans-serif" font-size="14" lengthAdjust="spacing" textLength="81.7317" x="486.2256" y="230.1018">TUI_Adapter</text><line style="stroke:#181818;stroke-width:0.5;" x1="458.2256" x2="569.9573" y1="240.6698" y2="240.6698"/><line style="stroke:#181818;stroke-width:0.5;" x1="458.2256" x2="569.9573" y1="248.6698" y2="248.6698"/></g><!--class APP--><g class="entity" data-entity="APP" data-source-line="194" data-uid="ent0062" id="entity_APP"><rect fill="#F1F1F1" height="48" rx="2.5" ry="2.5" style="stroke:#181818;stroke-width:0.5;" width="57.8859" x="650.0524" y="92.0679"/><ellipse cx="665.0524" cy="108.0679" fill="#ADD1B2" rx="11" ry="11" style="stroke:#181818;stroke-width:1;"/><path d="M664.5211,114.9898 Q662.7711,114.9898 661.6305,114.2554 Q660.5055,113.5054 659.943,112.1617 Q659.3961,110.8023 659.3961,109.0054 Q659.3961,106.9742 660.0524,105.521 Q660.7086,104.0679 661.9899,103.2867 Q663.2711,102.5054 665.1461,102.5054 Q666.0367,102.5054 666.7086,102.6929 Q667.3805,102.8648 668.068,103.2085 L667.2555,105.2242 Q666.6305,104.9117 666.0836,104.7867 Q665.5524,104.6617 665.068,104.6617 Q663.8961,104.6617 663.193,105.1929 Q662.4899,105.7242 662.193,106.6773 Q661.8961,107.6304 661.8961,108.896 Q661.8961,110.9117 662.6149,111.8804 Q663.3336,112.8335 664.9274,112.8335 Q665.5211,112.8335 666.1461,112.6773 Q666.7711,112.521 667.5992,112.146 L667.5992,114.3648 Q666.8649,114.6773 666.068,114.8335 Q665.2867,114.9898 664.5211,114.9898 Z " fill="#000000"/><text fill="#000000" font-family="sans-serif" font-size="14" lengthAdjust="spacing" textLength="25.8859" x="679.0524" y="113.4999">APP</text><line style="stroke:#181818;stroke-width:0.5;" x1="651.0524" x2="706.9383" y1="124.0679" y2="124.0679"/><line style="stroke:#181818;stroke-width:0.5;" x1="651.0524" x2="706.9383" y1="132.0679" y2="132.0679"/></g><g class="entity" data-entity="GMN79" data-source-line="216" data-uid="ent0080" id="entity_GMN79"><path d="M1048.7911,3450.0081 L1048.7911,3530.8322 L1226.7403,3530.8322 L1226.7403,3460.0081 L1216.7403,3450.0081 L1048.7911,3450.0081" fill="#FEFFDD" style="stroke:#181818;stroke-width:0.5;"/><path d="M1216.7403,3450.0081 L1216.7403,3460.0081 L1226.7403,3460.0081 L1216.7403,3450.0081" fill="#FEFFDD" style="stroke:#181818;stroke-width:1;"/><text fill="#000000" font-family="sans-serif" font-size="13" lengthAdjust="spacing" textLength="111.9561" x="1054.7911" y="3468.9051">Template Method:</text><text fill="#000000" font-family="sans-serif" font-size="13" lengthAdjust="spacing" textLength="156.9491" x="1054.7911" y="3486.6111">process_json = parse type</text><text fill="#000000" font-family="sans-serif" font-size="13" lengthAdjust="spacing" textLength="100.2041" x="1054.7911" y="3504.3171">-&gt; build package</text><text fill="#000000" font-family="sans-serif" font-size="13" lengthAdjust="spacing" textLength="86.0341" x="1054.7911" y="3522.0232">-&gt; call handler</text></g><g class="entity" data-entity="GMN82" data-source-line="223" data-uid="ent0083" id="entity_GMN82"><path d="M1029.7681,2376.6043 L1029.7681,2439.7223 L1216.8692,2439.7223 L1216.8692,2386.6043 L1206.8692,2376.6043 L1029.7681,2376.6043" fill="#FEFFDD" style="stroke:#181818;stroke-width:0.5;"/><path d="M1206.8692,2376.6043 L1206.8692,2386.6043 L1216.8692,2386.6043 L1206.8692,2376.6043" fill="#FEFFDD" style="stroke:#181818;stroke-width:1;"/><text fill="#000000" font-family="sans-serif" font-size="13" lengthAdjust="spacing" textLength="104.4421" x="1035.7681" y="2395.5013">Decorator/Proxy:</text><text fill="#000000" font-family="sans-serif" font-size="13" lengthAdjust="spacing" textLength="166.1011" x="1035.7681" y="2413.2073">wraps Dispatcher and adds</text><text fill="#000000" font-family="sans-serif" font-size="13" lengthAdjust="spacing" textLength="146.5881" x="1035.7681" y="2430.9133">access control and roles</text></g><g class="entity" data-entity="GMN85" data-source-line="229" data-uid="ent0086" id="entity_GMN85"><path d="M1085.6089,1337.7659 L1085.6089,1383.1779 L1305.5091,1383.1779 L1305.5091,1347.7659 L1295.5091,1337.7659 L1085.6089,1337.7659" fill="#FEFFDD" style="stroke:#181818;stroke-width:0.5;"/><path d="M1295.5091,1337.7659 L1295.5091,1347.7659 L1305.5091,1347.7659 L1295.5091,1337.7659" fill="#FEFFDD" style="stroke:#181818;stroke-width:1;"/><text fill="#000000" font-family="sans-serif" font-size="13" lengthAdjust="spacing" textLength="115.9861" x="1091.6089" y="1356.6629">Command pattern:</text><text fill="#000000" font-family="sans-serif" font-size="13" lengthAdjust="spacing" textLength="198.9002" x="1091.6089" y="1374.3689">text command -&gt; function + args</text></g><g class="entity" data-entity="GMN88" data-source-line="234" data-uid="ent0089" id="entity_GMN88"><path d="M1326.5091,1337.7659 L1326.5091,1383.1779 L1542.5613,1383.1779 L1542.5613,1347.7659 L1532.5613,1337.7659 L1326.5091,1337.7659" fill="#FEFFDD" style="stroke:#181818;stroke-width:0.5;"/><path d="M1532.5613,1337.7659 L1532.5613,1347.7659 L1542.5613,1347.7659 L1532.5613,1337.7659" fill="#FEFFDD" style="stroke:#181818;stroke-width:1;"/><text fill="#000000" font-family="sans-serif" font-size="13" lengthAdjust="spacing" textLength="59.8651" x="1332.5091" y="1356.6629">Observer:</text><text fill="#000000" font-family="sans-serif" font-size="13" lengthAdjust="spacing" textLength="195.0522" x="1332.5091" y="1374.3689">callbacks in APPClient notify TUI</text></g><line style="stroke:#181818;stroke-width:1;" x1="652.5487" x2="652.5487" y1="3032.3969" y2="3042.3969"/><line style="stroke:#181818;stroke-width:1;" x1="652.5487" x2="817.8352" y1="3042.3969" y2="3042.3969"/><line style="stroke:#181818;stroke-width:1;" x1="817.8352" x2="817.8352" y1="3042.3969" y2="3072.3969"/><polygon fill="#FFFFFF" points="652.5487,3032.3969,645.5487,3051.3969,659.5487,3051.3969,652.5487,3032.3969" style="stroke:#181818;stroke-width:1;"/><line style="stroke:#181818;stroke-width:1;" x1="579.8389" x2="579.8389" y1="3032.3969" y2="3042.3969"/><line style="stroke:#181818;stroke-width:1;" x1="579.8389" x2="345.0077" y1="3042.3969" y2="3042.3969"/><line style="stroke:#181818;stroke-width:1;" x1="345.0077" x2="345.0077" y1="3042.3969" y2="3072.3969"/><polygon fill="#FFFFFF" points="579.8389,3032.3969,572.8389,3051.3969,586.8389,3051.3969,579.8389,3032.3969" style="stroke:#181818;stroke-width:1;"/><line style="stroke:#181818;stroke-width:1;" x1="616.1938" x2="616.1938" y1="3032.3969" y2="3072.3969"/><polygon fill="#FFFFFF" points="616.1938,3032.3969,609.1938,3051.3969,623.1938,3051.3969,616.1938,3032.3969" style="stroke:#181818;stroke-width:1;"/><line style="stroke:#181818;stroke-width:1;" x1="1122.9372" x2="1122.9372" y1="3032.3969" y2="3042.3969"/><line style="stroke:#181818;stroke-width:1;" x1="1122.9372" x2="1123.2887" y1="3042.3969" y2="3042.3969"/><line style="stroke:#181818;stroke-width:1;" x1="1123.2887" x2="1123.2887" y1="3042.3969" y2="3086.6978"/><polygon fill="#FFFFFF" points="1122.9372,3032.3969,1115.9372,3051.3969,1129.9372,3051.3969,1122.9372,3032.3969" style="stroke:#181818;stroke-width:1;"/><line style="stroke:#181818;stroke-width:1;" x1="1066.0284" x2="1066.0284" y1="3191.9016" y2="3264.8044"/><line style="stroke:#181818;stroke-width:1;" x1="1066.0284" x2="1137.7657" y1="3264.8044" y2="3264.8044"/><line style="stroke:#181818;stroke-width:1;" x1="1137.7657" x2="1137.7657" y1="3264.8044" y2="3284.8044"/><polygon fill="#181818" points="1066.0284,3191.9016,1062.0284,3197.9016,1066.0284,3203.9016,1070.0284,3197.9016,1066.0284,3191.9016" style="stroke:#181818;stroke-width:1;"/><line style="stroke:#181818;stroke-width:1;stroke-dasharray:7.0,7.0;" x1="1200.549" x2="1200.549" y1="3284.8044" y2="3032.3969"/><polygon fill="#181818" points="1200.549,3032.3969,1204.549,3023.3969,1200.549,3027.3969,1196.549,3023.3969,1200.549,3032.3969" style="stroke:#181818;stroke-width:1;"/><line style="stroke:#181818;stroke-width:1;stroke-dasharray:7.0,7.0;" x1="253.6432" x2="253.6432" y1="2540.876" y2="2602.582"/><polygon fill="#181818" points="253.6432,2602.582,257.6432,2593.582,253.6432,2597.582,249.6432,2593.582,253.6432,2602.582" style="stroke:#181818;stroke-width:1;"/><text fill="#000000" font-family="sans-serif" font-size="13" lengthAdjust="spacing" textLength="44.486" x="258.6432" y="2576.773">creates</text><line style="stroke:#181818;stroke-width:1;" x1="207.3217" x2="207.3217" y1="2822.1932" y2="2872.1932"/><line style="stroke:#181818;stroke-width:1;" x1="207.3217" x2="940.5078" y1="2872.1932" y2="2872.1932"/><line style="stroke:#181818;stroke-width:1;" x1="940.5078" x2="940.5078" y1="2872.1932" y2="3274.8044"/><line style="stroke:#181818;stroke-width:1;" x1="940.5078" x2="1074.9824" y1="3274.8044" y2="3274.8044"/><line style="stroke:#181818;stroke-width:1;" x1="1074.9824" x2="1074.9824" y1="3274.8044" y2="3284.8044"/><polygon fill="none" points="207.3217,2822.1932,203.3217,2828.1932,207.3217,2834.1932,211.3217,2828.1932,207.3217,2822.1932" style="stroke:#181818;stroke-width:1;"/><line style="stroke:#181818;stroke-width:1;" x1="243.8323" x2="243.8323" y1="1540.1734" y2="1621.8794"/><polygon fill="#181818" points="243.8323,1621.8794,247.8323,1612.8794,243.8323,1616.8794,239.8323,1612.8794,243.8323,1621.8794" style="stroke:#181818;stroke-width:1;"/><line style="stroke:#181818;stroke-width:1;stroke-dasharray:7.0,7.0;" x1="674.9757" x2="674.9757" y1="1958.7599" y2="2013.0609"/><polygon fill="#FFFFFF" points="674.9757,1958.7599,667.9757,1977.7599,681.9757,1977.7599,674.9757,1958.7599" style="stroke:#181818;stroke-width:1;"/><line style="stroke:#181818;stroke-width:1;stroke-dasharray:7.0,7.0;" x1="713.5481" x2="713.5481" y1="1910.7599" y2="1895.993"/><line style="stroke:#181818;stroke-width:1;stroke-dasharray:7.0,7.0;" x1="713.5481" x2="844.6162" y1="1895.993" y2="1895.993"/><line style="stroke:#181818;stroke-width:1;stroke-dasharray:7.0,7.0;" x1="844.6162" x2="844.6162" y1="1895.993" y2="1844.2869"/><line style="stroke:#181818;stroke-width:1;stroke-dasharray:7.0,7.0;" x1="844.6162" x2="907.7994" y1="1844.2869" y2="1844.2869"/><line style="stroke:#181818;stroke-width:1;stroke-dasharray:7.0,7.0;" x1="907.7994" x2="907.7994" y1="1844.2869" y2="1774.753"/><polygon fill="#FFFFFF" points="713.5481,1910.7599,706.5481,1929.7599,720.5481,1929.7599,713.5481,1910.7599" style="stroke:#181818;stroke-width:1;"/><line style="stroke:#181818;stroke-width:1;" x1="649.6262" x2="649.6262" y1="2118.2646" y2="2158.2646"/><polygon fill="#181818" points="649.6262,2118.2646,645.6262,2124.2646,649.6262,2130.2646,653.6262,2124.2646,649.6262,2118.2646" style="stroke:#181818;stroke-width:1;"/><line style="stroke:#181818;stroke-width:1;" x1="934.4556" x2="934.4556" y1="1774.753" y2="1854.2869"/><line style="stroke:#181818;stroke-width:1;" x1="934.4556" x2="861.6162" y1="1854.2869" y2="1854.2869"/><line style="stroke:#181818;stroke-width:1;" x1="861.6162" x2="861.6162" y1="1854.2869" y2="1905.993"/><polygon fill="#181818" points="934.4556,1774.753,930.4556,1780.753,934.4556,1786.753,938.4556,1780.753,934.4556,1774.753" style="stroke:#181818;stroke-width:1;"/><line style="stroke:#181818;stroke-width:1;" x1="881.1431" x2="881.1431" y1="1774.753" y2="1834.2869"/><line style="stroke:#181818;stroke-width:1;" x1="881.1431" x2="674.9757" y1="1834.2869" y2="1834.2869"/><line style="stroke:#181818;stroke-width:1;" x1="674.9757" x2="674.9757" y1="1834.2869" y2="1910.7599"/><polygon fill="#181818" points="674.9757,1910.7599,678.9757,1901.7599,674.9757,1905.7599,670.9757,1901.7599,674.9757,1910.7599" style="stroke:#181818;stroke-width:1;"/><text fill="#000000" font-family="sans-serif" font-size="13" lengthAdjust="spacing" textLength="37.102" x="633.8737" y="1880.184">wraps</text><line style="stroke:#181818;stroke-width:1;" x1="861.6162" x2="861.6162" y1="1973.0609" y2="2013.0609"/><polygon fill="#181818" points="861.6162,2013.0609,865.6162,2004.0609,861.6162,2008.0609,857.6162,2004.0609,861.6162,2013.0609" style="stroke:#181818;stroke-width:1;"/><line style="stroke:#181818;stroke-width:1;" x1="854.4869" x2="854.4869" y1="1774.753" y2="1824.2869"/><line style="stroke:#181818;stroke-width:1;" x1="854.4869" x2="504.6062" y1="1824.2869" y2="1824.2869"/><line style="stroke:#181818;stroke-width:1;" x1="504.6062" x2="504.6062" y1="1824.2869" y2="1905.993"/><polygon fill="#181818" points="504.6062,1905.993,508.6062,1896.993,504.6062,1900.993,500.6062,1896.993,504.6062,1905.993" style="stroke:#181818;stroke-width:1;"/><line style="stroke:#181818;stroke-width:1;" x1="562.6649" x2="562.6649" y1="1784.2869" y2="1804.2869"/><line style="stroke:#181818;stroke-width:1;" x1="562.6649" x2="406.3814" y1="1804.2869" y2="1804.2869"/><line style="stroke:#181818;stroke-width:1;" x1="406.3814" x2="406.3814" y1="1804.2869" y2="2341.6043"/><line style="stroke:#181818;stroke-width:1;" x1="406.3814" x2="1008.7681" y1="2341.6043" y2="2341.6043"/><line style="stroke:#181818;stroke-width:1;" x1="1008.7681" x2="1008.7681" y1="2341.6043" y2="3086.6978"/><polygon fill="#FFFFFF" points="1008.7681,3086.6978,1015.7681,3067.6978,1001.7681,3067.6978,1008.7681,3086.6978" style="stroke:#181818;stroke-width:1;"/><line style="stroke:#181818;stroke-width:1;" x1="620.8737" x2="620.8737" y1="1784.2869" y2="1895.993"/><line style="stroke:#181818;stroke-width:1;" x1="620.8737" x2="636.4034" y1="1895.993" y2="1895.993"/><line style="stroke:#181818;stroke-width:1;" x1="636.4034" x2="636.4034" y1="1895.993" y2="1910.7599"/><polygon fill="#181818" points="636.4034,1910.7599,640.4034,1901.7599,636.4034,1905.7599,632.4034,1901.7599,636.4034,1910.7599" style="stroke:#181818;stroke-width:1;"/><line style="stroke:#181818;stroke-width:1;" x1="504.4561" x2="504.4561" y1="1784.2869" y2="1794.2869"/><line style="stroke:#181818;stroke-width:1;" x1="504.4561" x2="395.3814" y1="1794.2869" y2="1794.2869"/><line style="stroke:#181818;stroke-width:1;" x1="395.3814" x2="395.3814" y1="1794.2869" y2="1895.993"/><line style="stroke:#181818;stroke-width:1;" x1="395.3814" x2="373.923" y1="1895.993" y2="1895.993"/><line style="stroke:#181818;stroke-width:1;" x1="373.923" x2="373.923" y1="1895.993" y2="1905.993"/><polygon fill="#181818" points="504.4561,1784.2869,500.4561,1790.2869,504.4561,1796.2869,508.4561,1790.2869,504.4561,1784.2869" style="stroke:#181818;stroke-width:1;"/><line style="stroke:#181818;stroke-width:1;" x1="997.7681" x2="997.7681" y1="1540.1734" y2="2361.6043"/><line style="stroke:#181818;stroke-width:1;" x1="997.7681" x2="253.6432" y1="2361.6043" y2="2361.6043"/><line style="stroke:#181818;stroke-width:1;" x1="253.6432" x2="253.6432" y1="2361.6043" y2="2416.6043"/><polygon fill="#181818" points="997.7681,1540.1734,993.7681,1546.1734,997.7681,1552.1734,1001.7681,1546.1734,997.7681,1540.1734" style="stroke:#181818;stroke-width:1;"/><line style="stroke:#181818;stroke-width:1;" x1="892.0865" x2="892.0865" y1="1540.1734" y2="1570.1734"/><line style="stroke:#181818;stroke-width:1;" x1="892.0865" x2="816.8306" y1="1570.1734" y2="1570.1734"/><line style="stroke:#181818;stroke-width:1;" x1="816.8306" x2="816.8306" y1="1570.1734" y2="1814.2869"/><line style="stroke:#181818;stroke-width:1;" x1="816.8306" x2="420.3814" y1="1814.2869" y2="1814.2869"/><line style="stroke:#181818;stroke-width:1;" x1="420.3814" x2="420.3814" y1="1814.2869" y2="2003.0609"/><line style="stroke:#181818;stroke-width:1;" x1="420.3814" x2="624.2766" y1="2003.0609" y2="2003.0609"/><line style="stroke:#181818;stroke-width:1;" x1="624.2766" x2="624.2766" y1="2003.0609" y2="2013.0609"/><polygon fill="#181818" points="892.0865,1540.1734,888.0865,1546.1734,892.0865,1552.1734,896.0865,1546.1734,892.0865,1540.1734" style="stroke:#181818;stroke-width:1;"/><line style="stroke:#181818;stroke-width:1;" x1="944.9273" x2="944.9273" y1="1540.1734" y2="1550.1734"/><line style="stroke:#181818;stroke-width:1;" x1="944.9273" x2="907.7994" y1="1550.1734" y2="1550.1734"/><line style="stroke:#181818;stroke-width:1;" x1="907.7994" x2="907.7994" y1="1550.1734" y2="1669.5492"/><polygon fill="#181818" points="944.9273,1540.1734,940.9273,1546.1734,944.9273,1552.1734,948.9273,1546.1734,944.9273,1540.1734" style="stroke:#181818;stroke-width:1;"/><line style="stroke:#181818;stroke-width:1;" x1="786.4049" x2="786.4049" y1="1540.1734" y2="1550.1734"/><line style="stroke:#181818;stroke-width:1;" x1="786.4049" x2="351.4645" y1="1550.1734" y2="1550.1734"/><line style="stroke:#181818;stroke-width:1;" x1="351.4645" x2="351.4645" y1="1550.1734" y2="1905.993"/><polygon fill="#181818" points="786.4049,1540.1734,782.4049,1546.1734,786.4049,1552.1734,790.4049,1546.1734,786.4049,1540.1734" style="stroke:#181818;stroke-width:1;"/><line style="stroke:#181818;stroke-width:1;stroke-dasharray:7.0,7.0;" x1="839.2457" x2="839.2457" y1="1540.1734" y2="1560.1734"/><line style="stroke:#181818;stroke-width:1;stroke-dasharray:7.0,7.0;" x1="839.2457" x2="562.6649" y1="1560.1734" y2="1560.1734"/><line style="stroke:#181818;stroke-width:1;stroke-dasharray:7.0,7.0;" x1="562.6649" x2="562.6649" y1="1560.1734" y2="1621.8794"/><polygon fill="#181818" points="562.6649,1621.8794,566.6649,1612.8794,562.6649,1616.8794,558.6649,1612.8794,562.6649,1621.8794" style="stroke:#181818;stroke-width:1;"/><text fill="#000000" font-family="sans-serif" font-size="13" lengthAdjust="spacing" textLength="44.486" x="514.1789" y="1596.0704">creates</text><line style="stroke:#181818;stroke-width:1;" x1="304.1581" x2="304.1581" y1="642.8829" y2="652.8829"/><line style="stroke:#181818;stroke-width:1;" x1="304.1581" x2="132.6586" y1="652.8829" y2="652.8829"/><line style="stroke:#181818;stroke-width:1;" x1="132.6586" x2="132.6586" y1="652.8829" y2="682.8829"/><polygon fill="#FFFFFF" points="304.1581,642.8829,297.1581,661.8829,311.1581,661.8829,304.1581,642.8829" style="stroke:#181818;stroke-width:1;"/><line style="stroke:#181818;stroke-width:1;" x1="378.9558" x2="378.9558" y1="642.8829" y2="708.3068"/><polygon fill="#FFFFFF" points="378.9558,642.8829,371.9558,661.8829,385.9558,661.8829,378.9558,642.8829" style="stroke:#181818;stroke-width:1;"/><line style="stroke:#181818;stroke-width:1;" x1="338.7429" x2="338.7429" y1="775.3747" y2="798.0867"/><line style="stroke:#181818;stroke-width:1;" x1="338.7429" x2="280.3341" y1="798.0867" y2="798.0867"/><line style="stroke:#181818;stroke-width:1;" x1="280.3341" x2="280.3341" y1="798.0867" y2="828.0867"/><polygon fill="#181818" points="338.7429,775.3747,334.7429,781.3747,338.7429,787.3747,342.7429,781.3747,338.7429,775.3747" style="stroke:#181818;stroke-width:1;"/><line style="stroke:#181818;stroke-width:1;" x1="322.8196" x2="322.8196" y1="971.4262" y2="1011.4263"/><polygon fill="#181818" points="322.8196,971.4262,318.8196,977.4262,322.8196,983.4262,326.8196,977.4262,322.8196,971.4262" style="stroke:#181818;stroke-width:1;"/><line style="stroke:#181818;stroke-width:1;" x1="377.191" x2="377.191" y1="1116.63" y2="1156.6301"/><polygon fill="#181818" points="377.191,1116.63,373.191,1122.63,377.191,1128.63,381.191,1122.63,377.191,1116.63" style="stroke:#181818;stroke-width:1;"/><line style="stroke:#181818;stroke-width:1;" x1="237.8486" x2="237.8486" y1="971.4262" y2="981.4263"/><line style="stroke:#181818;stroke-width:1;" x1="237.8486" x2="148.7052" y1="981.4263" y2="981.4263"/><line style="stroke:#181818;stroke-width:1;" x1="148.7052" x2="148.7052" y1="981.4263" y2="1302.7659"/><line style="stroke:#181818;stroke-width:1;" x1="148.7052" x2="329.0061" y1="1302.7659" y2="1302.7659"/><line style="stroke:#181818;stroke-width:1;" x1="329.0061" x2="329.0061" y1="1302.7659" y2="1905.993"/><polygon fill="#FFFFFF" points="237.8486,971.4262,230.8486,990.4262,244.8486,990.4262,237.8486,971.4262" style="stroke:#181818;stroke-width:1;"/><line style="stroke:#181818;stroke-width:1;" x1="419.1687" x2="419.1687" y1="775.3747" y2="818.0867"/><line style="stroke:#181818;stroke-width:1;" x1="419.1687" x2="468.6925" y1="818.0867" y2="818.0867"/><line style="stroke:#181818;stroke-width:1;" x1="468.6925" x2="468.6925" y1="818.0867" y2="828.0867"/><polygon fill="#FFFFFF" points="419.1687,775.3747,412.1687,794.3747,426.1687,794.3747,419.1687,775.3747" style="stroke:#181818;stroke-width:1;"/><line style="stroke:#181818;stroke-width:1;" x1="673.7478" x2="673.7478" y1="642.8829" y2="1282.7659"/><line style="stroke:#181818;stroke-width:1;" x1="673.7478" x2="1315.5091" y1="1282.7659" y2="1282.7659"/><line style="stroke:#181818;stroke-width:1;" x1="1315.5091" x2="1315.5091" y1="1282.7659" y2="2872.1932"/><line style="stroke:#181818;stroke-width:1;" x1="1315.5091" x2="1034.3255" y1="2872.1932" y2="2872.1932"/><line style="stroke:#181818;stroke-width:1;" x1="1034.3255" x2="1034.3255" y1="2872.1932" y2="3062.3969"/><line style="stroke:#181818;stroke-width:1;" x1="1034.3255" x2="1066.0284" y1="3062.3969" y2="3062.3969"/><line style="stroke:#181818;stroke-width:1;" x1="1066.0284" x2="1066.0284" y1="3062.3969" y2="3086.6978"/><polygon fill="#FFFFFF" points="1066.0284,3086.6978,1073.0284,3067.6978,1059.0284,3067.6978,1066.0284,3086.6978" style="stroke:#181818;stroke-width:1;"/><line style="stroke:#181818;stroke-width:1;" x1="673.7478" x2="673.7478" y1="468.6113" y2="518.6113"/><polygon fill="#FFFFFF" points="673.7478,518.6113,680.7478,499.6113,666.7478,499.6113,673.7478,518.6113" style="stroke:#181818;stroke-width:1;"/><line style="stroke:#181818;stroke-width:1;" x1="688.643" x2="688.643" y1="285.2717" y2="325.2717"/><polygon fill="#FFFFFF" points="688.643,325.2717,695.643,306.2717,681.643,306.2717,688.643,325.2717" style="stroke:#181818;stroke-width:1;"/><line style="stroke:#181818;stroke-width:1;" x1="132.6586" x2="132.6586" y1="788.0867" y2="2592.582"/><line style="stroke:#181818;stroke-width:1;" x1="132.6586" x2="161.0002" y1="2592.582" y2="2592.582"/><line style="stroke:#181818;stroke-width:1;" x1="161.0002" x2="161.0002" y1="2592.582" y2="2602.582"/><polygon fill="#181818" points="161.0002,2602.582,165.0002,2593.582,161.0002,2597.582,157.0002,2593.582,161.0002,2602.582" style="stroke:#181818;stroke-width:1;"/><line style="stroke:#181818;stroke-width:1;" x1="629.0624" x2="629.0624" y1="468.6113" y2="488.6113"/><line style="stroke:#181818;stroke-width:1;" x1="629.0624" x2="509.5944" y1="488.6113" y2="488.6113"/><line style="stroke:#181818;stroke-width:1;" x1="509.5944" x2="509.5944" y1="488.6113" y2="828.0867"/><polygon fill="#181818" points="629.0624,468.6113,625.0624,474.6113,629.0624,480.6113,633.0624,474.6113,629.0624,468.6113" style="stroke:#181818;stroke-width:1;"/><line style="stroke:#181818;stroke-width:1;" x1="584.3769" x2="584.3769" y1="468.6113" y2="478.6113"/><line style="stroke:#181818;stroke-width:1;" x1="584.3769" x2="341.5569" y1="478.6113" y2="478.6113"/><line style="stroke:#181818;stroke-width:1;" x1="341.5569" x2="341.5569" y1="478.6113" y2="518.6113"/><polygon fill="#181818" points="584.3769,468.6113,580.3769,474.6113,584.3769,480.6113,588.3769,474.6113,584.3769,468.6113" style="stroke:#181818;stroke-width:1;"/><line style="stroke:#181818;stroke-width:1;" x1="688.643" x2="688.643" y1="140.0679" y2="180.0679"/><polygon fill="#181818" points="688.643,140.0679,684.643,146.0679,688.643,152.0679,692.643,146.0679,688.643,140.0679" style="stroke:#181818;stroke-width:1;"/><line style="stroke:#181818;stroke-width:1;" x1="669.3477" x2="669.3477" y1="140.0679" y2="150.0679"/><line style="stroke:#181818;stroke-width:1;" x1="669.3477" x2="514.0915" y1="150.0679" y2="150.0679"/><line style="stroke:#181818;stroke-width:1;" x1="514.0915" x2="514.0915" y1="150.0679" y2="208.6698"/><polygon fill="#181818" points="669.3477,140.0679,665.3477,146.0679,669.3477,152.0679,673.3477,146.0679,669.3477,140.0679" style="stroke:#181818;stroke-width:1;"/><line style="stroke:#181818;stroke-width:1;" x1="514.0915" x2="514.0915" y1="256.6698" y2="315.2717"/><line style="stroke:#181818;stroke-width:1;" x1="514.0915" x2="614.1672" y1="315.2717" y2="315.2717"/><line style="stroke:#181818;stroke-width:1;" x1="614.1672" x2="614.1672" y1="315.2717" y2="325.2717"/><polygon fill="#181818" points="614.1672,325.2717,618.1672,316.2717,614.1672,320.2717,610.1672,316.2717,614.1672,325.2717" style="stroke:#181818;stroke-width:1;"/><line style="stroke:#181818;stroke-width:1;stroke-dasharray:7.0,7.0;" x1="1137.7657" x2="1137.7657" y1="3390.0082" y2="3450.0081"/><line style="stroke:#181818;stroke-width:1;stroke-dasharray:7.0,7.0;" x1="961.1119" x2="961.1119" y1="1774.753" y2="2331.6043"/><line style="stroke:#181818;stroke-width:1;stroke-dasharray:7.0,7.0;" x1="961.1119" x2="1123.3187" y1="2331.6043" y2="2331.6043"/><line style="stroke:#181818;stroke-width:1;stroke-dasharray:7.0,7.0;" x1="1123.3187" x2="1123.3187" y1="2331.6043" y2="2376.6043"/><line style="stroke:#181818;stroke-width:1;stroke-dasharray:7.0,7.0;" x1="268.4481" x2="268.4481" y1="1116.63" y2="1292.7659"/><line style="stroke:#181818;stroke-width:1;stroke-dasharray:7.0,7.0;" x1="268.4481" x2="1195.559" y1="1292.7659" y2="1292.7659"/><line style="stroke:#181818;stroke-width:1;stroke-dasharray:7.0,7.0;" x1="1195.559" x2="1195.559" y1="1292.7659" y2="1337.7659"/><line style="stroke:#181818;stroke-width:1;stroke-dasharray:7.0,7.0;" x1="718.4333" x2="718.4333" y1="468.6113" y2="478.6113"/><line style="stroke:#181818;stroke-width:1;stroke-dasharray:7.0,7.0;" x1="718.4333" x2="836.9013" y1="478.6113" y2="478.6113"/><line style="stroke:#181818;stroke-width:1;stroke-dasharray:7.0,7.0;" x1="836.9013" x2="836.9013" y1="478.6113" y2="1272.7659"/><line style="stroke:#181818;stroke-width:1;stroke-dasharray:7.0,7.0;" x1="836.9013" x2="1434.5352" y1="1272.7659" y2="1272.7659"/><line style="stroke:#181818;stroke-width:1;stroke-dasharray:7.0,7.0;" x1="1434.5352" x2="1434.5352" y1="1272.7659" y2="1337.7659"/><!--SRC=[dLZDZXj54BxxAPgSdCHUE5kmqR8eOYKYLalsF6hFjErXPwQjxlOw3ecKvC81Zfou06-m2Laf119UOVmAF0bL_JVTyxD4QBLZJrLrLtNLLp_jZzQ2BajA2hhZ6qLOSJ6I5tcrfeAM92seb4TAYNo-KUmavTKt-MD6FWb4v8fcV9jNIxAWXMGZbQk2aIoNTb6M20Px9-cAAlBFiv_8-OElIFswVbDVrR_ldy7pB_Yx8lNR-i_wQlzy_xn-NxyQZTOqlQ1BHcxLlu3Cs_fw_sB_0wdV462_rEjUrk_tBu1pTOjyDoA4pa4bJPKncfpQzSWYvAxQhTcCW8HzvSctabVZsm5j8NXfgFX8W7uR64_Xt-puW4aPx8W72bPBLcLCX2hOev1VcjL9dir8NgbxLYW7kgBbUaOogXY-tdFxgSHpauflqLPhGcJMGoTqnkIQLtB8m9O1W_e3PzWbur8klMwmegCnikURdLIiR3aBTaXQ8PZpRETUdmx6xqjQPGKJRX-82so51e4TT4jpHUS5ypmbnHZ-Utbo9_LQ-zcIQUotYk-3ALpihE9fiZA6I71KdbhlBI56bfx0Hv9Nu9OgPH60G6ujU0h-Q85ho82ZLEMNhF_y6yb4HKlM0bxYwEFkqH58desFZc9uk6pvzCbq6g0i8lU5FHA88jymtH6qJD_XGBJtp7T0Fev6iwaBpy71OKlFw6bOF7xJXUD7B1nGMQwXSBp2foaPnj_7lAeOwETLozbRQSDdTaiMHkUiQnHcczbbdAydPCs52YkBsCILHeSiIAw-e87489erL-FOxj6FQP24EkmCwp9pcLWcov0zvxo8Kvc9oyOTLCV8BG5tGIu0k7o2DOmafKKn1oSPdaiHwx_nLdPjiIvgPuIr0AFS3TECf891rS8mTRcyYvu86R_Mrz1nhki_T5E1XWJu-5kZvVisGiwmWxbA8BL9CskQeO6RrrIbAwH_uRyR7YJ_erqIIfmYfIqsvr2ijQBFkHhq2GPVKU7BpZXmkYNrU95LczBRTSmpva_cY93IcqBvAdlXmQ2HdR5PUxbE2-Z_KiFQzgm55oLL2HE2YmRmQ04q72OW_YnmpucZTQnfC0Sz3CvNH5KNYvbC5fkgXzgHRy1yR5XkvrOLBLavrzNT8pfAKjFT4tJ5XFHdx6OkKnXvs1WjqP9T8R3vFyLymCv1u8nhcdu_PQBCfOHG7-c01mq3kylPfl3j5jAFRt7qWkLm9cZcZrbbJXOqkXY6OOjn2nltbc2ee915YO534tIn2KK3VnSvgrIhfFOdIeW4FHbqKi4xgrjLkvt-fWdXGwS0hnuehIIPJW_RsT1p56Xt1mTnCHYKwXQ482pO1IrsiVsrWdP7zrGN_nw1qDfGyOni1LrBtNizV50uW5tVNZqeZ2CzdJuv76hpRSd30H34SdZ600wc6YFHb-2657cn8NSztF0wM-jk4rdGT9geXVmC3UGDj91t-nSJ0ctZ2kye4xpAlCSxJVskVetlvoUzDvHZl14DLIDTTY2j2hX8sPpEFcHc69O8iLronKBrJb-2yWcKSSYJAetotqaW0p9nKwdW6X6DtfSypzgLLu5_VN62WwIyBC6tSko-zAqBrk1T9cav2Sf4csHtW_85DqyeCSVc_Ko_Mktw06Q-WXlQ61zTNnefFDQ0J6Fb_KsL7ecbFAMvBtFGd5nomDl5bWA_hqI6vlcZMeyaA1w68F2RSzk4E4qJWZeQB_epQ5VSV0A3TQSVocfISBuEfurWob0ho8Gi77ExarnICNM3nF1GshR98iTJiJR5rY8meaPb4bN_t33sg8dyyd_laFwYPK21cq-8TMm7kqUdfx6XgDNUmEFf6CTbj1F22nsxdoSWOozZRl03mFb9SfJHjO6uLu-TI-UuldSrEH-H6mUx9CMAQ2ZkhPr4CMfH8am1kz0gzPNLRM-qHi7rzVx6rX64NekPxzY-lASrlP7JzTnNEcmsdKj2lE-TZcbTjd4Ww3ITr-aEQ74uWZVVNUqIQ2KLM4T4lbmfmXVTQ-L3LguBG3FSoDMAPpCWXJybaCy8pE2I4Vnb1NYm_NoJ5ncn7SgG43F4tWr60662IZkgknC8IxaU-3xMFDIj1uPmD85D2S0MXmYgXmW2UQrWTjGSFKEsDKBHLhn4bGEm0kCL42fKYCb5RAd3exXYH-xgQZUyTmI2h-VsoeRPOHD8GkyAa0FByyKEWzNi-Iy0]--></g></svg>